<mxfile host="Electron" agent="Mozilla/5.0 (Windows NT 10.0; Win64; x64) AppleWebKit/537.36 (KHTML, like Gecko) draw.io/27.0.9 Chrome/134.0.6998.205 Electron/35.4.0 Safari/537.36" version="27.0.9" pages="5">
  <diagram name="Data Architecture" id="CM1OH4Bcad_3U4q2Psqj">
    <mxGraphModel dx="947" dy="569" grid="0" gridSize="10" guides="1" tooltips="1" connect="1" arrows="1" fold="1" page="1" pageScale="1" pageWidth="980" pageHeight="690" background="#FFFFFF" math="0" shadow="0">
      <root>
        <mxCell id="0" />
        <mxCell id="1" parent="0" />
        <mxCell id="HDnm0f6pBEnkYekwhcGH-38" value="" style="rounded=0;whiteSpace=wrap;html=1;fontColor=#FFFFFF;fillColor=none;" parent="1" vertex="1">
          <mxGeometry x="86" y="84" width="808" height="479" as="geometry" />
        </mxCell>
        <mxCell id="mV7vOot1Zdtoj60Vq0Ko-1" value="" style="rounded=0;whiteSpace=wrap;html=1;fillColor=none;dashed=1;strokeColor=#9E9E9E;" parent="1" vertex="1">
          <mxGeometry x="120" y="160" width="120" height="370" as="geometry" />
        </mxCell>
        <mxCell id="mV7vOot1Zdtoj60Vq0Ko-2" value="" style="rounded=0;whiteSpace=wrap;html=1;fillColor=none;dashed=1;strokeColor=#9E9E9E;" parent="1" vertex="1">
          <mxGeometry x="270" y="160" width="440" height="370" as="geometry" />
        </mxCell>
        <mxCell id="mV7vOot1Zdtoj60Vq0Ko-3" value="" style="rounded=0;whiteSpace=wrap;html=1;fillColor=none;dashed=1;strokeColor=#9E9E9E;" parent="1" vertex="1">
          <mxGeometry x="740" y="160" width="120" height="370" as="geometry" />
        </mxCell>
        <mxCell id="mV7vOot1Zdtoj60Vq0Ko-4" value="" style="rounded=0;whiteSpace=wrap;html=1;fillColor=none;strokeColor=#FFD684;" parent="1" vertex="1">
          <mxGeometry x="290" y="204" width="120" height="306" as="geometry" />
        </mxCell>
        <mxCell id="mV7vOot1Zdtoj60Vq0Ko-5" value="" style="rounded=0;whiteSpace=wrap;html=1;fillColor=none;fontColor=#ffffff;strokeColor=#CDCDCD;" parent="1" vertex="1">
          <mxGeometry x="430" y="204" width="120" height="306" as="geometry" />
        </mxCell>
        <mxCell id="mV7vOot1Zdtoj60Vq0Ko-6" value="" style="rounded=0;whiteSpace=wrap;html=1;fillColor=none;strokeColor=#E3D86A;fontColor=#000000;" parent="1" vertex="1">
          <mxGeometry x="570" y="204" width="120" height="306" as="geometry" />
        </mxCell>
        <mxCell id="mV7vOot1Zdtoj60Vq0Ko-7" value="Bronze Layer" style="rounded=0;whiteSpace=wrap;html=1;fillColor=#FFD684;strokeColor=#E3BE75;fontColor=#000000;fontStyle=1;" parent="1" vertex="1">
          <mxGeometry x="290" y="180" width="120" height="20" as="geometry" />
        </mxCell>
        <mxCell id="mV7vOot1Zdtoj60Vq0Ko-8" value="Gold Layer" style="rounded=0;whiteSpace=wrap;html=1;fillColor=#FFF377;strokeColor=#E3D86A;fontStyle=1;gradientColor=none;fontColor=#000000;" parent="1" vertex="1">
          <mxGeometry x="570" y="180" width="120" height="20" as="geometry" />
        </mxCell>
        <mxCell id="mV7vOot1Zdtoj60Vq0Ko-9" value="Silver Layer" style="rounded=0;whiteSpace=wrap;html=1;fillColor=#E3E3E3;strokeColor=#CDCDCD;fontStyle=1;gradientColor=none;fontColor=#000000;" parent="1" vertex="1">
          <mxGeometry x="430" y="180" width="120" height="20" as="geometry" />
        </mxCell>
        <mxCell id="mV7vOot1Zdtoj60Vq0Ko-10" value="Data Warehouse" style="text;html=1;align=center;verticalAlign=middle;whiteSpace=wrap;rounded=0;fillColor=#FFFFFF;strokeColor=none;textShadow=1;fontColor=#000000;fontStyle=1;fontSize=14;" parent="1" vertex="1">
          <mxGeometry x="430" y="150" width="120" height="20" as="geometry" />
        </mxCell>
        <mxCell id="mV7vOot1Zdtoj60Vq0Ko-11" value="Sources" style="text;html=1;align=center;verticalAlign=middle;whiteSpace=wrap;rounded=0;fillColor=#FFFFFF;strokeColor=none;textShadow=1;fontColor=#000000;fontStyle=1;fontSize=14;" parent="1" vertex="1">
          <mxGeometry x="140" y="150" width="80" height="20" as="geometry" />
        </mxCell>
        <mxCell id="mV7vOot1Zdtoj60Vq0Ko-13" value="Consume" style="text;html=1;align=center;verticalAlign=middle;whiteSpace=wrap;rounded=0;fillColor=#FFFFFF;strokeColor=none;textShadow=1;fontColor=#000000;fontStyle=1;fontSize=14;" parent="1" vertex="1">
          <mxGeometry x="760" y="150" width="80" height="20" as="geometry" />
        </mxCell>
        <mxCell id="HDnm0f6pBEnkYekwhcGH-4" value="" style="html=1;verticalLabelPosition=bottom;align=center;labelBackgroundColor=#ffffff;verticalAlign=top;strokeWidth=1;strokeColor=#E3BE75;shadow=0;dashed=0;shape=mxgraph.ios7.icons.data;fillColor=#FFD684;rounded=0;" parent="1" vertex="1">
          <mxGeometry x="333.5" y="234" width="32.99" height="40" as="geometry" />
        </mxCell>
        <mxCell id="HDnm0f6pBEnkYekwhcGH-5" value="" style="html=1;verticalLabelPosition=bottom;align=center;labelBackgroundColor=#ffffff;verticalAlign=top;strokeWidth=1;strokeColor=#CDCDCD;shadow=0;dashed=0;shape=mxgraph.ios7.icons.data;fillColor=#E3E3E3;rounded=0;" parent="1" vertex="1">
          <mxGeometry x="474" y="234" width="32.99" height="40" as="geometry" />
        </mxCell>
        <mxCell id="HDnm0f6pBEnkYekwhcGH-6" value="" style="html=1;verticalLabelPosition=bottom;align=center;labelBackgroundColor=#ffffff;verticalAlign=middle;strokeWidth=1;strokeColor=#E3D86A;shadow=0;dashed=0;shape=mxgraph.ios7.icons.data;fillColor=#FFF377;rounded=0;fontFamily=Helvetica;fontSize=12;fontColor=#000000;fontStyle=1;gradientColor=none;" parent="1" vertex="1">
          <mxGeometry x="613.5" y="234" width="32.99" height="40" as="geometry" />
        </mxCell>
        <mxCell id="HDnm0f6pBEnkYekwhcGH-7" value="" style="html=1;shadow=0;dashed=0;align=center;verticalAlign=middle;shape=mxgraph.arrows2.arrow;dy=0.64;dx=17.62;notch=0;fillColor=#dae8fc;strokeColor=#84ADE9;rounded=0;" parent="1" vertex="1">
          <mxGeometry x="231" y="318.75" width="50" height="30" as="geometry" />
        </mxCell>
        <mxCell id="HDnm0f6pBEnkYekwhcGH-13" value="&lt;b&gt;Object type:&lt;/b&gt;&lt;div&gt;&lt;div&gt;&amp;nbsp;CSV files&lt;/div&gt;&lt;/div&gt;&lt;div&gt;&lt;br&gt;&lt;/div&gt;&lt;div&gt;CRM Folder:&lt;/div&gt;&lt;div&gt;&amp;nbsp;3 CSV files&lt;/div&gt;&lt;div&gt;&lt;br&gt;&lt;/div&gt;&lt;div&gt;ERP Folder:&lt;/div&gt;&lt;div&gt;&amp;nbsp;3 CSV files&lt;/div&gt;" style="text;html=1;align=left;verticalAlign=top;whiteSpace=wrap;rounded=0;fontColor=#000000;fontSize=10;" parent="1" vertex="1">
          <mxGeometry x="131" y="399" width="100" height="120" as="geometry" />
        </mxCell>
        <mxCell id="HDnm0f6pBEnkYekwhcGH-14" value="CRM" style="text;html=1;align=center;verticalAlign=middle;whiteSpace=wrap;rounded=0;fontColor=#000000;fontSize=12;" parent="1" vertex="1">
          <mxGeometry x="150" y="269" width="60" height="15" as="geometry" />
        </mxCell>
        <mxCell id="HDnm0f6pBEnkYekwhcGH-15" value="ERP" style="text;html=1;align=center;verticalAlign=middle;whiteSpace=wrap;rounded=0;fontColor=#000000;fontSize=12;" parent="1" vertex="1">
          <mxGeometry x="150" y="358.5" width="60" height="15" as="geometry" />
        </mxCell>
        <mxCell id="HDnm0f6pBEnkYekwhcGH-16" value="&lt;font style=&quot;color: rgb(0, 0, 0);&quot;&gt;Raw Data&lt;/font&gt;" style="text;html=1;align=center;verticalAlign=top;whiteSpace=wrap;rounded=0;fontSize=11;" parent="1" vertex="1">
          <mxGeometry x="295" y="275" width="110" height="30" as="geometry" />
        </mxCell>
        <mxCell id="HDnm0f6pBEnkYekwhcGH-17" value="&lt;font style=&quot;color: rgb(0, 0, 0);&quot;&gt;Clean, Standardized Data&lt;/font&gt;" style="text;html=1;align=center;verticalAlign=top;whiteSpace=wrap;rounded=0;fontSize=11;" parent="1" vertex="1">
          <mxGeometry x="435" y="275" width="110" height="30" as="geometry" />
        </mxCell>
        <mxCell id="HDnm0f6pBEnkYekwhcGH-18" value="&lt;font style=&quot;color: rgb(0, 0, 0);&quot;&gt;Business-Ready Data&lt;/font&gt;" style="text;html=1;align=center;verticalAlign=top;whiteSpace=wrap;rounded=0;fontSize=11;" parent="1" vertex="1">
          <mxGeometry x="575" y="274" width="110" height="30" as="geometry" />
        </mxCell>
        <mxCell id="HDnm0f6pBEnkYekwhcGH-19" value="" style="line;strokeWidth=1;align=left;verticalAlign=middle;spacingTop=-1;spacingLeft=3;spacingRight=3;rotatable=0;labelPosition=right;points=[];portConstraint=eastwest;fillColor=#ffe6cc;strokeColor=#FFD684;rounded=0;" parent="1" vertex="1">
          <mxGeometry x="300" y="307.5" width="100" height="8" as="geometry" />
        </mxCell>
        <mxCell id="HDnm0f6pBEnkYekwhcGH-20" value="" style="line;strokeWidth=1;align=center;verticalAlign=middle;spacingTop=-1;spacingLeft=3;spacingRight=3;rotatable=0;labelPosition=right;points=[];portConstraint=eastwest;fillColor=none;strokeColor=#CDCDCD;rounded=0;fontFamily=Helvetica;fontSize=12;fontColor=#ffffff;" parent="1" vertex="1">
          <mxGeometry x="440" y="307.5" width="100" height="8" as="geometry" />
        </mxCell>
        <mxCell id="HDnm0f6pBEnkYekwhcGH-21" value="" style="line;strokeWidth=1;align=center;verticalAlign=middle;spacingTop=-1;spacingLeft=3;spacingRight=3;rotatable=0;labelPosition=right;points=[];portConstraint=eastwest;fillColor=none;strokeColor=#E3D86A;rounded=0;fontFamily=Helvetica;fontSize=12;fontColor=#000000;" parent="1" vertex="1">
          <mxGeometry x="580" y="307.5" width="100" height="8" as="geometry" />
        </mxCell>
        <mxCell id="HDnm0f6pBEnkYekwhcGH-22" value="" style="line;strokeWidth=1;align=left;verticalAlign=middle;spacingTop=-1;spacingLeft=3;spacingRight=3;rotatable=0;labelPosition=right;points=[];portConstraint=eastwest;fillColor=#ffe6cc;strokeColor=#9E9E9E;rounded=0;" parent="1" vertex="1">
          <mxGeometry x="130" y="391" width="100" height="8" as="geometry" />
        </mxCell>
        <mxCell id="HDnm0f6pBEnkYekwhcGH-23" value="&lt;b&gt;Object type: &lt;/b&gt;Tables&lt;div&gt;&lt;br&gt;&lt;div&gt;&lt;b&gt;Load:&lt;/b&gt;&lt;/div&gt;&lt;div&gt;&amp;nbsp;- Batch processing&lt;/div&gt;&lt;div&gt;&amp;nbsp;- Full load&lt;/div&gt;&lt;div&gt;&amp;nbsp;- Truncate &amp;amp; Insert&lt;/div&gt;&lt;div&gt;&lt;b&gt;&lt;br&gt;&lt;/b&gt;&lt;/div&gt;&lt;div&gt;&lt;b&gt;Transformations:&lt;/b&gt;&lt;/div&gt;&lt;div&gt;&amp;nbsp;None&lt;/div&gt;&lt;div&gt;&lt;br&gt;&lt;/div&gt;&lt;div&gt;&lt;b&gt;Data Model: &lt;/b&gt;None&lt;/div&gt;&lt;/div&gt;" style="text;html=1;align=left;verticalAlign=top;whiteSpace=wrap;rounded=0;fontColor=#000000;fontSize=10;spacing=1;" parent="1" vertex="1">
          <mxGeometry x="300" y="316" width="100" height="184" as="geometry" />
        </mxCell>
        <mxCell id="HDnm0f6pBEnkYekwhcGH-26" value="&lt;b&gt;Object type: &lt;/b&gt;Tables&lt;div&gt;&lt;br&gt;&lt;div&gt;&lt;b&gt;Load:&lt;/b&gt;&lt;/div&gt;&lt;div&gt;&amp;nbsp;- Batch processing&lt;/div&gt;&lt;div&gt;&amp;nbsp;- Full load&lt;/div&gt;&lt;div&gt;&amp;nbsp;- Truncate &amp;amp; Insert&lt;/div&gt;&lt;div&gt;&lt;b&gt;&lt;br&gt;&lt;/b&gt;&lt;/div&gt;&lt;div&gt;&lt;b&gt;Transformations:&lt;/b&gt;&lt;/div&gt;&lt;div&gt;&amp;nbsp;- Data Cleansing&lt;/div&gt;&lt;div&gt;&amp;nbsp;- Data standrization&lt;/div&gt;&lt;div&gt;&amp;nbsp;- Data Normalization&lt;/div&gt;&lt;div&gt;&amp;nbsp;- Derived Columns&lt;/div&gt;&lt;div&gt;&amp;nbsp;- Data Enrichment&lt;/div&gt;&lt;div&gt;&lt;br&gt;&lt;/div&gt;&lt;div&gt;&lt;b&gt;Data Model: &lt;/b&gt;None&lt;/div&gt;&lt;/div&gt;" style="text;html=1;align=left;verticalAlign=top;whiteSpace=wrap;rounded=0;fontColor=#000000;fontSize=10;spacing=1;" parent="1" vertex="1">
          <mxGeometry x="440" y="316" width="100" height="184" as="geometry" />
        </mxCell>
        <mxCell id="HDnm0f6pBEnkYekwhcGH-27" value="&lt;b&gt;Object type: &lt;/b&gt;Views&lt;div&gt;&lt;br&gt;&lt;div&gt;&lt;b&gt;Load:&lt;/b&gt;&lt;/div&gt;&lt;div&gt;&lt;b&gt;&amp;nbsp;&lt;/b&gt;&lt;span style=&quot;background-color: transparent;&quot;&gt;&lt;font&gt;None&lt;/font&gt;&lt;/span&gt;&lt;/div&gt;&lt;div&gt;&lt;br&gt;&lt;/div&gt;&lt;div&gt;&lt;b&gt;Transformations:&lt;/b&gt;&lt;/div&gt;&lt;div&gt;&amp;nbsp;- Data Integrations&lt;/div&gt;&lt;div&gt;&amp;nbsp;- Aggregations&lt;/div&gt;&lt;div&gt;&amp;nbsp;- Business Logics&lt;/div&gt;&lt;div&gt;&lt;br&gt;&lt;/div&gt;&lt;div&gt;&lt;b&gt;Data Model:&amp;nbsp;&lt;/b&gt;&lt;/div&gt;&lt;/div&gt;&lt;div&gt;&amp;nbsp;- Star Schema&lt;/div&gt;&lt;div&gt;&amp;nbsp;- Flat Table&lt;/div&gt;&lt;div&gt;&amp;nbsp;- Aggregated Table&lt;/div&gt;" style="text;html=1;align=left;verticalAlign=top;whiteSpace=wrap;rounded=0;fontColor=#000000;fontSize=10;spacing=1;" parent="1" vertex="1">
          <mxGeometry x="580" y="316" width="100" height="184" as="geometry" />
        </mxCell>
        <mxCell id="HDnm0f6pBEnkYekwhcGH-31" value="" style="outlineConnect=0;fontColor=#232F3E;gradientColor=none;fillColor=#7AA116;strokeColor=none;dashed=0;verticalLabelPosition=bottom;verticalAlign=top;align=center;html=1;fontSize=12;fontStyle=0;aspect=fixed;pointerEvents=1;shape=mxgraph.aws4.backup_compliance_reporting;sketchStyle=comic;rounded=0;" parent="1" vertex="1">
          <mxGeometry x="775" y="230.24" width="37.55" height="45.76" as="geometry" />
        </mxCell>
        <mxCell id="HDnm0f6pBEnkYekwhcGH-30" value="" style="image;aspect=fixed;html=1;points=[];align=center;fontSize=12;image=img/lib/azure2/power_platform/PowerBI.svg;rounded=0;" parent="1" vertex="1">
          <mxGeometry x="789.42" y="244" width="34.88" height="46.5" as="geometry" />
        </mxCell>
        <mxCell id="HDnm0f6pBEnkYekwhcGH-32" value="BI &amp;amp; Reporting" style="text;html=1;align=center;verticalAlign=middle;whiteSpace=wrap;rounded=0;fontColor=#000000;fontSize=12;" parent="1" vertex="1">
          <mxGeometry x="750" y="299.5" width="100" height="16" as="geometry" />
        </mxCell>
        <mxCell id="HDnm0f6pBEnkYekwhcGH-36" value="" style="outlineConnect=0;fontColor=#232F3E;gradientColor=none;fillColor=#7AA116;strokeColor=none;dashed=0;verticalLabelPosition=bottom;verticalAlign=top;align=center;html=1;fontSize=12;fontStyle=0;aspect=fixed;pointerEvents=1;shape=mxgraph.aws4.iot_greengrass_component_machine_learning;sketchStyle=comic;rounded=0;" parent="1" vertex="1">
          <mxGeometry x="773.5" y="362" width="53" height="53" as="geometry" />
        </mxCell>
        <mxCell id="HDnm0f6pBEnkYekwhcGH-37" value="Machine Learning" style="text;html=1;align=center;verticalAlign=middle;whiteSpace=wrap;rounded=0;fontColor=#000000;fontSize=12;fontFamily=Helvetica;" parent="1" vertex="1">
          <mxGeometry x="750" y="424" width="100" height="16" as="geometry" />
        </mxCell>
        <mxCell id="HDnm0f6pBEnkYekwhcGH-11" value="" style="pointerEvents=1;shadow=0;dashed=0;html=1;strokeColor=none;fillColor=#4D9900;labelPosition=center;verticalLabelPosition=bottom;verticalAlign=top;outlineConnect=0;align=center;shape=mxgraph.office.users.csv_file;sketchStyle=comic;rounded=0;" parent="1" vertex="1">
          <mxGeometry x="152.9" y="226" width="54.2" height="39.51" as="geometry" />
        </mxCell>
        <mxCell id="Usjd2OmJdoMKn1-9z3hU-1" value="" style="pointerEvents=1;shadow=0;dashed=0;html=1;strokeColor=none;fillColor=#4D9900;labelPosition=center;verticalLabelPosition=bottom;verticalAlign=top;outlineConnect=0;align=center;shape=mxgraph.office.users.csv_file;sketchStyle=comic;rounded=0;" parent="1" vertex="1">
          <mxGeometry x="152.9" y="314" width="54.2" height="39.51" as="geometry" />
        </mxCell>
        <mxCell id="Usjd2OmJdoMKn1-9z3hU-2" value="" style="html=1;shadow=0;dashed=0;align=center;verticalAlign=middle;shape=mxgraph.arrows2.arrow;dy=0.64;dx=17.62;notch=0;fillColor=#dae8fc;strokeColor=#84ADE9;rounded=0;" parent="1" vertex="1">
          <mxGeometry x="701" y="318.75" width="50" height="30" as="geometry" />
        </mxCell>
        <mxCell id="0KWn2oNoDu0owhGLFL-4-1" value="Data Architecture" style="text;strokeColor=none;fillColor=none;align=center;verticalAlign=middle;spacingLeft=4;spacingRight=4;overflow=hidden;points=[[0,0.5],[1,0.5]];portConstraint=eastwest;rotatable=0;whiteSpace=wrap;html=1;fontColor=#000000;fontSize=20;fontStyle=5;rounded=0;" vertex="1" parent="1">
          <mxGeometry x="336.49" y="89" width="308" height="52" as="geometry" />
        </mxCell>
      </root>
    </mxGraphModel>
  </diagram>
  <diagram name="Data Flow" id="AyyhhZGHeFm9ndjkrca6">
    <mxGraphModel dx="1158" dy="696" grid="0" gridSize="10" guides="1" tooltips="1" connect="1" arrows="1" fold="1" page="1" pageScale="1" pageWidth="980" pageHeight="690" background="#FFFFFF" math="0" shadow="0">
      <root>
        <mxCell id="nkz3tJl9-UWpVmMUFNEJ-0" />
        <mxCell id="nkz3tJl9-UWpVmMUFNEJ-1" parent="nkz3tJl9-UWpVmMUFNEJ-0" />
        <mxCell id="nkz3tJl9-UWpVmMUFNEJ-2" value="" style="rounded=0;whiteSpace=wrap;html=1;fontColor=#FFFFFF;fillColor=none;" parent="nkz3tJl9-UWpVmMUFNEJ-1" vertex="1">
          <mxGeometry x="39" y="90" width="900" height="472" as="geometry" />
        </mxCell>
        <mxCell id="nkz3tJl9-UWpVmMUFNEJ-4" value="" style="rounded=1;whiteSpace=wrap;html=1;fillColor=none;dashed=1;strokeColor=#9E9E9E;" parent="nkz3tJl9-UWpVmMUFNEJ-1" vertex="1">
          <mxGeometry x="230" y="160" width="520" height="370" as="geometry" />
        </mxCell>
        <mxCell id="nkz3tJl9-UWpVmMUFNEJ-6" value="" style="rounded=1;whiteSpace=wrap;html=1;fillColor=none;strokeColor=#FFD684;" parent="nkz3tJl9-UWpVmMUFNEJ-1" vertex="1">
          <mxGeometry x="270" y="220" width="120" height="290" as="geometry" />
        </mxCell>
        <mxCell id="nkz3tJl9-UWpVmMUFNEJ-3" value="" style="rounded=1;whiteSpace=wrap;html=1;fillColor=none;dashed=1;strokeColor=#9E9E9E;" parent="nkz3tJl9-UWpVmMUFNEJ-1" vertex="1">
          <mxGeometry x="76" y="160" width="120" height="370" as="geometry" />
        </mxCell>
        <mxCell id="nkz3tJl9-UWpVmMUFNEJ-5" value="" style="rounded=1;whiteSpace=wrap;html=1;fillColor=none;dashed=1;strokeColor=#9E9E9E;" parent="nkz3tJl9-UWpVmMUFNEJ-1" vertex="1">
          <mxGeometry x="780" y="160" width="120" height="370" as="geometry" />
        </mxCell>
        <mxCell id="nkz3tJl9-UWpVmMUFNEJ-7" value="" style="rounded=1;whiteSpace=wrap;html=1;fillColor=none;fontColor=#ffffff;strokeColor=#CDCDCD;" parent="nkz3tJl9-UWpVmMUFNEJ-1" vertex="1">
          <mxGeometry x="430" y="220" width="120" height="290" as="geometry" />
        </mxCell>
        <mxCell id="nkz3tJl9-UWpVmMUFNEJ-8" value="" style="rounded=1;whiteSpace=wrap;html=1;fillColor=none;strokeColor=#E3D86A;fontColor=#000000;" parent="nkz3tJl9-UWpVmMUFNEJ-1" vertex="1">
          <mxGeometry x="590" y="220" width="120" height="290" as="geometry" />
        </mxCell>
        <mxCell id="nkz3tJl9-UWpVmMUFNEJ-9" value="Bronze Layer" style="rounded=1;whiteSpace=wrap;html=1;fillColor=#FFD684;strokeColor=#E3BE75;fontColor=#000000;fontStyle=1;" parent="nkz3tJl9-UWpVmMUFNEJ-1" vertex="1">
          <mxGeometry x="270" y="180" width="120" height="30" as="geometry" />
        </mxCell>
        <mxCell id="nkz3tJl9-UWpVmMUFNEJ-10" value="Gold Layer" style="rounded=1;whiteSpace=wrap;html=1;fillColor=#FFF377;strokeColor=#E3D86A;fontStyle=1;gradientColor=none;fontColor=#000000;" parent="nkz3tJl9-UWpVmMUFNEJ-1" vertex="1">
          <mxGeometry x="590" y="180" width="120" height="30" as="geometry" />
        </mxCell>
        <mxCell id="nkz3tJl9-UWpVmMUFNEJ-11" value="Silver Layer" style="rounded=1;whiteSpace=wrap;html=1;fillColor=#E3E3E3;strokeColor=#CDCDCD;fontStyle=1;gradientColor=none;fontColor=#000000;" parent="nkz3tJl9-UWpVmMUFNEJ-1" vertex="1">
          <mxGeometry x="430" y="180" width="120" height="30" as="geometry" />
        </mxCell>
        <mxCell id="nkz3tJl9-UWpVmMUFNEJ-12" value="Data Warehouse" style="text;html=1;align=center;verticalAlign=middle;whiteSpace=wrap;rounded=1;fillColor=#FFFFFF;strokeColor=none;textShadow=1;fontColor=#000000;fontStyle=1;fontSize=14;" parent="nkz3tJl9-UWpVmMUFNEJ-1" vertex="1">
          <mxGeometry x="430" y="150" width="120" height="20" as="geometry" />
        </mxCell>
        <mxCell id="nkz3tJl9-UWpVmMUFNEJ-13" value="Sources" style="text;html=1;align=center;verticalAlign=middle;whiteSpace=wrap;rounded=1;fillColor=#FFFFFF;strokeColor=none;textShadow=1;fontColor=#000000;fontStyle=1;fontSize=14;" parent="nkz3tJl9-UWpVmMUFNEJ-1" vertex="1">
          <mxGeometry x="96" y="150" width="80" height="20" as="geometry" />
        </mxCell>
        <mxCell id="nkz3tJl9-UWpVmMUFNEJ-14" value="Consume" style="text;html=1;align=center;verticalAlign=middle;whiteSpace=wrap;rounded=1;fillColor=#FFFFFF;strokeColor=none;textShadow=1;fontColor=#000000;fontStyle=1;fontSize=14;" parent="nkz3tJl9-UWpVmMUFNEJ-1" vertex="1">
          <mxGeometry x="800" y="150" width="80" height="20" as="geometry" />
        </mxCell>
        <mxCell id="nkz3tJl9-UWpVmMUFNEJ-15" value="" style="html=1;verticalLabelPosition=bottom;align=center;labelBackgroundColor=#ffffff;verticalAlign=top;strokeWidth=1;strokeColor=#E3BE75;shadow=0;dashed=0;shape=mxgraph.ios7.icons.data;fillColor=#FFD684;rounded=1;" parent="nkz3tJl9-UWpVmMUFNEJ-1" vertex="1">
          <mxGeometry x="313.5" y="204" width="32.99" height="40" as="geometry" />
        </mxCell>
        <mxCell id="nkz3tJl9-UWpVmMUFNEJ-16" value="" style="html=1;verticalLabelPosition=bottom;align=center;labelBackgroundColor=#ffffff;verticalAlign=top;strokeWidth=1;strokeColor=#CDCDCD;shadow=0;dashed=0;shape=mxgraph.ios7.icons.data;fillColor=#E3E3E3;rounded=1;" parent="nkz3tJl9-UWpVmMUFNEJ-1" vertex="1">
          <mxGeometry x="474" y="204" width="32.99" height="40" as="geometry" />
        </mxCell>
        <mxCell id="nkz3tJl9-UWpVmMUFNEJ-17" value="" style="html=1;verticalLabelPosition=bottom;align=center;labelBackgroundColor=#ffffff;verticalAlign=middle;strokeWidth=1;strokeColor=#E3D86A;shadow=0;dashed=0;shape=mxgraph.ios7.icons.data;fillColor=#FFF377;rounded=1;fontFamily=Helvetica;fontSize=12;fontColor=#000000;fontStyle=1;gradientColor=none;" parent="nkz3tJl9-UWpVmMUFNEJ-1" vertex="1">
          <mxGeometry x="633.5" y="204" width="32.99" height="40" as="geometry" />
        </mxCell>
        <mxCell id="nkz3tJl9-UWpVmMUFNEJ-34" value="" style="outlineConnect=0;fontColor=#232F3E;gradientColor=none;fillColor=#7AA116;strokeColor=none;dashed=0;verticalLabelPosition=bottom;verticalAlign=top;align=center;html=1;fontSize=12;fontStyle=0;aspect=fixed;pointerEvents=1;shape=mxgraph.aws4.backup_compliance_reporting;rounded=1;sketchStyle=comic;" parent="nkz3tJl9-UWpVmMUFNEJ-1" vertex="1">
          <mxGeometry x="815" y="230.24" width="37.55" height="45.76" as="geometry" />
        </mxCell>
        <mxCell id="nkz3tJl9-UWpVmMUFNEJ-35" value="" style="image;aspect=fixed;html=1;points=[];align=center;fontSize=12;image=img/lib/azure2/power_platform/PowerBI.svg;rounded=1;" parent="nkz3tJl9-UWpVmMUFNEJ-1" vertex="1">
          <mxGeometry x="829.42" y="244" width="34.88" height="46.5" as="geometry" />
        </mxCell>
        <mxCell id="nkz3tJl9-UWpVmMUFNEJ-36" value="BI &amp;amp; Reporting" style="text;html=1;align=center;verticalAlign=middle;whiteSpace=wrap;rounded=1;fontColor=#000000;fontSize=12;" parent="nkz3tJl9-UWpVmMUFNEJ-1" vertex="1">
          <mxGeometry x="790" y="299.5" width="100" height="16" as="geometry" />
        </mxCell>
        <mxCell id="nkz3tJl9-UWpVmMUFNEJ-37" value="" style="outlineConnect=0;fontColor=#232F3E;gradientColor=none;fillColor=#7AA116;strokeColor=none;dashed=0;verticalLabelPosition=bottom;verticalAlign=top;align=center;html=1;fontSize=12;fontStyle=0;aspect=fixed;pointerEvents=1;shape=mxgraph.aws4.iot_greengrass_component_machine_learning;rounded=1;sketchStyle=comic;" parent="nkz3tJl9-UWpVmMUFNEJ-1" vertex="1">
          <mxGeometry x="813.5" y="362" width="53" height="53" as="geometry" />
        </mxCell>
        <mxCell id="nkz3tJl9-UWpVmMUFNEJ-38" value="Machine Learning" style="text;html=1;align=center;verticalAlign=middle;whiteSpace=wrap;rounded=1;fontColor=#000000;fontSize=12;fontFamily=Helvetica;" parent="nkz3tJl9-UWpVmMUFNEJ-1" vertex="1">
          <mxGeometry x="790" y="424" width="100" height="16" as="geometry" />
        </mxCell>
        <mxCell id="4tnZvqAjpB7rmJJDHh08-8" style="edgeStyle=orthogonalEdgeStyle;rounded=1;orthogonalLoop=1;jettySize=auto;html=1;entryX=0;entryY=0.5;entryDx=0;entryDy=0;strokeColor=#4D4D4D;endArrow=blockThin;endFill=1;" edge="1" parent="nkz3tJl9-UWpVmMUFNEJ-1" source="NTOD27JbAmNWIC12hs3g-2" target="4tnZvqAjpB7rmJJDHh08-0">
          <mxGeometry relative="1" as="geometry" />
        </mxCell>
        <mxCell id="NTOD27JbAmNWIC12hs3g-2" value="crm_sales_details" style="rounded=1;whiteSpace=wrap;html=1;fillColor=#FFD684;strokeColor=#E3BE75;fontColor=#000000;fontStyle=0;" parent="nkz3tJl9-UWpVmMUFNEJ-1" vertex="1">
          <mxGeometry x="280" y="324" width="100" height="30.5" as="geometry" />
        </mxCell>
        <mxCell id="4tnZvqAjpB7rmJJDHh08-9" style="edgeStyle=orthogonalEdgeStyle;rounded=1;orthogonalLoop=1;jettySize=auto;html=1;entryX=0;entryY=0.5;entryDx=0;entryDy=0;strokeColor=#4D4D4D;endArrow=blockThin;endFill=1;" edge="1" parent="nkz3tJl9-UWpVmMUFNEJ-1" source="NTOD27JbAmNWIC12hs3g-3" target="4tnZvqAjpB7rmJJDHh08-1">
          <mxGeometry relative="1" as="geometry" />
        </mxCell>
        <mxCell id="NTOD27JbAmNWIC12hs3g-3" value="erp_cust_az12" style="rounded=1;whiteSpace=wrap;html=1;fillColor=#FFD684;strokeColor=#E3BE75;fontColor=#000000;fontStyle=0;" parent="nkz3tJl9-UWpVmMUFNEJ-1" vertex="1">
          <mxGeometry x="280" y="377" width="100" height="30.5" as="geometry" />
        </mxCell>
        <mxCell id="4tnZvqAjpB7rmJJDHh08-10" style="edgeStyle=orthogonalEdgeStyle;rounded=1;orthogonalLoop=1;jettySize=auto;html=1;entryX=0;entryY=0.5;entryDx=0;entryDy=0;strokeColor=#4D4D4D;endArrow=blockThin;endFill=1;" edge="1" parent="nkz3tJl9-UWpVmMUFNEJ-1" source="NTOD27JbAmNWIC12hs3g-4" target="4tnZvqAjpB7rmJJDHh08-2">
          <mxGeometry relative="1" as="geometry" />
        </mxCell>
        <mxCell id="NTOD27JbAmNWIC12hs3g-4" value="erp_loc_a101" style="rounded=1;whiteSpace=wrap;html=1;fillColor=#FFD684;strokeColor=#E3BE75;fontColor=#000000;fontStyle=0;" parent="nkz3tJl9-UWpVmMUFNEJ-1" vertex="1">
          <mxGeometry x="280" y="414.5" width="100" height="30.5" as="geometry" />
        </mxCell>
        <mxCell id="4tnZvqAjpB7rmJJDHh08-12" style="edgeStyle=orthogonalEdgeStyle;rounded=1;orthogonalLoop=1;jettySize=auto;html=1;entryX=0;entryY=0.5;entryDx=0;entryDy=0;strokeColor=#4D4D4D;endArrow=blockThin;endFill=1;" edge="1" parent="nkz3tJl9-UWpVmMUFNEJ-1" source="NTOD27JbAmNWIC12hs3g-5" target="4tnZvqAjpB7rmJJDHh08-3">
          <mxGeometry relative="1" as="geometry" />
        </mxCell>
        <mxCell id="NTOD27JbAmNWIC12hs3g-5" value="erp_px_cat_g1v2" style="rounded=1;whiteSpace=wrap;html=1;fillColor=#FFD684;strokeColor=#E3BE75;fontColor=#000000;fontStyle=0;" parent="nkz3tJl9-UWpVmMUFNEJ-1" vertex="1">
          <mxGeometry x="280" y="452.5" width="100" height="30.5" as="geometry" />
        </mxCell>
        <mxCell id="4tnZvqAjpB7rmJJDHh08-7" style="edgeStyle=orthogonalEdgeStyle;rounded=1;orthogonalLoop=1;jettySize=auto;html=1;entryX=0;entryY=0.5;entryDx=0;entryDy=0;strokeColor=#4D4D4D;endArrow=blockThin;endFill=1;" edge="1" parent="nkz3tJl9-UWpVmMUFNEJ-1" source="NTOD27JbAmNWIC12hs3g-1" target="4tnZvqAjpB7rmJJDHh08-4">
          <mxGeometry relative="1" as="geometry" />
        </mxCell>
        <mxCell id="NTOD27JbAmNWIC12hs3g-1" value="crm_prd_info" style="rounded=1;whiteSpace=wrap;html=1;fillColor=#FFD684;strokeColor=#E3BE75;fontColor=#000000;fontStyle=0;" parent="nkz3tJl9-UWpVmMUFNEJ-1" vertex="1">
          <mxGeometry x="280" y="286" width="100" height="30.5" as="geometry" />
        </mxCell>
        <mxCell id="4tnZvqAjpB7rmJJDHh08-6" style="edgeStyle=orthogonalEdgeStyle;rounded=1;orthogonalLoop=1;jettySize=auto;html=1;entryX=0;entryY=0.5;entryDx=0;entryDy=0;strokeColor=#4D4D4D;endArrow=blockThin;endFill=1;" edge="1" parent="nkz3tJl9-UWpVmMUFNEJ-1" source="NTOD27JbAmNWIC12hs3g-0" target="4tnZvqAjpB7rmJJDHh08-5">
          <mxGeometry relative="1" as="geometry" />
        </mxCell>
        <mxCell id="NTOD27JbAmNWIC12hs3g-0" value="crm_cust_info" style="rounded=1;whiteSpace=wrap;html=1;fillColor=#FFD684;strokeColor=#E3BE75;fontColor=#000000;fontStyle=0;" parent="nkz3tJl9-UWpVmMUFNEJ-1" vertex="1">
          <mxGeometry x="280" y="248.5" width="100" height="30.5" as="geometry" />
        </mxCell>
        <mxCell id="NTOD27JbAmNWIC12hs3g-14" value="CSV Files" style="text;html=1;align=center;verticalAlign=middle;whiteSpace=wrap;rounded=1;fontColor=#000000;fontSize=12;" parent="nkz3tJl9-UWpVmMUFNEJ-1" vertex="1">
          <mxGeometry x="94" y="197" width="84" height="22" as="geometry" />
        </mxCell>
        <mxCell id="dZmB5G_CF-DqiWMUgGB--0" value="" style="line;strokeWidth=1;align=left;verticalAlign=middle;spacingTop=-1;spacingLeft=3;spacingRight=3;rotatable=0;labelPosition=right;points=[];portConstraint=eastwest;fillColor=#ffe6cc;strokeColor=#9E9E9E;comic=0;rounded=1;" parent="nkz3tJl9-UWpVmMUFNEJ-1" vertex="1">
          <mxGeometry x="91" y="238.24" width="90" height="8" as="geometry" />
        </mxCell>
        <mxCell id="AqgK2SUajYJO2LpoHal5-0" value="CRM" style="text;html=1;align=center;verticalAlign=middle;whiteSpace=wrap;rounded=1;fontColor=#000000;fontSize=12;" parent="nkz3tJl9-UWpVmMUFNEJ-1" vertex="1">
          <mxGeometry x="106" y="322.52" width="60" height="15" as="geometry" />
        </mxCell>
        <mxCell id="AqgK2SUajYJO2LpoHal5-1" value="ERP" style="text;html=1;align=center;verticalAlign=middle;whiteSpace=wrap;rounded=1;fontColor=#000000;fontSize=12;" parent="nkz3tJl9-UWpVmMUFNEJ-1" vertex="1">
          <mxGeometry x="106" y="451.5" width="60" height="15" as="geometry" />
        </mxCell>
        <mxCell id="AqgK2SUajYJO2LpoHal5-9" style="edgeStyle=orthogonalEdgeStyle;rounded=1;hachureGap=4;orthogonalLoop=1;jettySize=auto;html=1;entryX=0;entryY=0.5;entryDx=0;entryDy=0;fontFamily=Architects Daughter;fontSource=https%3A%2F%2Ffonts.googleapis.com%2Fcss%3Ffamily%3DArchitects%2BDaughter;strokeColor=#4D4D4D;endArrow=blockThin;endFill=1;" parent="nkz3tJl9-UWpVmMUFNEJ-1" source="v4M0kOfDJ48uFe400CBJ-0" target="NTOD27JbAmNWIC12hs3g-0" edge="1">
          <mxGeometry relative="1" as="geometry">
            <mxPoint x="207.20000000000005" y="301.2592592592591" as="sourcePoint" />
          </mxGeometry>
        </mxCell>
        <mxCell id="AqgK2SUajYJO2LpoHal5-10" style="edgeStyle=orthogonalEdgeStyle;rounded=1;hachureGap=4;orthogonalLoop=1;jettySize=auto;html=1;entryX=0;entryY=0.5;entryDx=0;entryDy=0;fontFamily=Architects Daughter;fontSource=https%3A%2F%2Ffonts.googleapis.com%2Fcss%3Ffamily%3DArchitects%2BDaughter;strokeColor=#4D4D4D;endArrow=blockThin;endFill=1;" parent="nkz3tJl9-UWpVmMUFNEJ-1" source="v4M0kOfDJ48uFe400CBJ-0" target="NTOD27JbAmNWIC12hs3g-1" edge="1">
          <mxGeometry relative="1" as="geometry">
            <mxPoint x="207.20000000000005" y="301.2592592592591" as="sourcePoint" />
          </mxGeometry>
        </mxCell>
        <mxCell id="AqgK2SUajYJO2LpoHal5-11" style="edgeStyle=orthogonalEdgeStyle;rounded=1;hachureGap=4;orthogonalLoop=1;jettySize=auto;html=1;entryX=0;entryY=0.5;entryDx=0;entryDy=0;fontFamily=Architects Daughter;fontSource=https%3A%2F%2Ffonts.googleapis.com%2Fcss%3Ffamily%3DArchitects%2BDaughter;strokeColor=#4D4D4D;endArrow=blockThin;endFill=1;" parent="nkz3tJl9-UWpVmMUFNEJ-1" source="v4M0kOfDJ48uFe400CBJ-0" target="NTOD27JbAmNWIC12hs3g-2" edge="1">
          <mxGeometry relative="1" as="geometry">
            <mxPoint x="207.20000000000005" y="301.2592592592591" as="sourcePoint" />
          </mxGeometry>
        </mxCell>
        <mxCell id="AqgK2SUajYJO2LpoHal5-12" style="edgeStyle=orthogonalEdgeStyle;rounded=1;hachureGap=4;orthogonalLoop=1;jettySize=auto;html=1;entryX=0;entryY=0.5;entryDx=0;entryDy=0;fontFamily=Architects Daughter;fontSource=https%3A%2F%2Ffonts.googleapis.com%2Fcss%3Ffamily%3DArchitects%2BDaughter;strokeColor=#4D4D4D;endArrow=blockThin;endFill=1;" parent="nkz3tJl9-UWpVmMUFNEJ-1" source="v4M0kOfDJ48uFe400CBJ-1" target="NTOD27JbAmNWIC12hs3g-3" edge="1">
          <mxGeometry relative="1" as="geometry">
            <mxPoint x="204.39999999999998" y="430.2222222222222" as="sourcePoint" />
          </mxGeometry>
        </mxCell>
        <mxCell id="AqgK2SUajYJO2LpoHal5-13" style="edgeStyle=orthogonalEdgeStyle;rounded=1;hachureGap=4;orthogonalLoop=1;jettySize=auto;html=1;entryX=0;entryY=0.5;entryDx=0;entryDy=0;fontFamily=Architects Daughter;fontSource=https%3A%2F%2Ffonts.googleapis.com%2Fcss%3Ffamily%3DArchitects%2BDaughter;strokeColor=#4D4D4D;endArrow=blockThin;endFill=1;" parent="nkz3tJl9-UWpVmMUFNEJ-1" source="v4M0kOfDJ48uFe400CBJ-1" target="NTOD27JbAmNWIC12hs3g-4" edge="1">
          <mxGeometry relative="1" as="geometry">
            <mxPoint x="204.39999999999998" y="430.2222222222222" as="sourcePoint" />
          </mxGeometry>
        </mxCell>
        <mxCell id="AqgK2SUajYJO2LpoHal5-14" style="edgeStyle=orthogonalEdgeStyle;rounded=1;hachureGap=4;orthogonalLoop=1;jettySize=auto;html=1;entryX=0;entryY=0.5;entryDx=0;entryDy=0;fontFamily=Architects Daughter;fontSource=https%3A%2F%2Ffonts.googleapis.com%2Fcss%3Ffamily%3DArchitects%2BDaughter;strokeColor=#4D4D4D;endArrow=blockThin;endFill=1;" parent="nkz3tJl9-UWpVmMUFNEJ-1" source="v4M0kOfDJ48uFe400CBJ-1" target="NTOD27JbAmNWIC12hs3g-5" edge="1">
          <mxGeometry relative="1" as="geometry">
            <mxPoint x="204.39999999999998" y="430.2222222222222" as="sourcePoint" />
          </mxGeometry>
        </mxCell>
        <mxCell id="v4M0kOfDJ48uFe400CBJ-0" value="" style="pointerEvents=1;shadow=0;dashed=0;html=1;strokeColor=none;fillColor=#4D9900;labelPosition=center;verticalLabelPosition=bottom;verticalAlign=top;outlineConnect=0;align=center;shape=mxgraph.office.users.csv_file;sketchStyle=comic;rounded=1;comic=0;" parent="nkz3tJl9-UWpVmMUFNEJ-1" vertex="1">
          <mxGeometry x="108.9" y="281" width="54.2" height="39.51" as="geometry" />
        </mxCell>
        <mxCell id="v4M0kOfDJ48uFe400CBJ-1" value="" style="pointerEvents=1;shadow=0;dashed=0;html=1;strokeColor=none;fillColor=#4D9900;labelPosition=center;verticalLabelPosition=bottom;verticalAlign=top;outlineConnect=0;align=center;shape=mxgraph.office.users.csv_file;sketchStyle=comic;rounded=1;comic=0;" parent="nkz3tJl9-UWpVmMUFNEJ-1" vertex="1">
          <mxGeometry x="108.9" y="409.99" width="54.2" height="39.51" as="geometry" />
        </mxCell>
        <mxCell id="hSsj0N2nDLDuVcWF-qqE-4" style="rounded=1;orthogonalLoop=1;jettySize=auto;html=1;entryX=0;entryY=0.5;entryDx=0;entryDy=0;strokeColor=#4D4D4D;jumpStyle=gap;exitX=1;exitY=0.5;exitDx=0;exitDy=0;endArrow=blockThin;endFill=1;" edge="1" parent="nkz3tJl9-UWpVmMUFNEJ-1" source="4tnZvqAjpB7rmJJDHh08-0" target="pX1Y0E-9tYjSFKPNbk9F-2">
          <mxGeometry relative="1" as="geometry" />
        </mxCell>
        <mxCell id="4tnZvqAjpB7rmJJDHh08-0" value="crm_sales_details" style="rounded=1;whiteSpace=wrap;html=1;fillColor=#E3E3E3;strokeColor=#CDCDCD;fontColor=#000000;fontStyle=0;align=center;verticalAlign=middle;fontFamily=Helvetica;fontSize=12;gradientColor=none;" vertex="1" parent="nkz3tJl9-UWpVmMUFNEJ-1">
          <mxGeometry x="440.49" y="324" width="100" height="30.5" as="geometry" />
        </mxCell>
        <mxCell id="hSsj0N2nDLDuVcWF-qqE-5" style="rounded=1;orthogonalLoop=1;jettySize=auto;html=1;entryX=0;entryY=0.5;entryDx=0;entryDy=0;strokeColor=#4D4D4D;jumpStyle=gap;exitX=1;exitY=0.5;exitDx=0;exitDy=0;endArrow=blockThin;endFill=1;" edge="1" parent="nkz3tJl9-UWpVmMUFNEJ-1" source="4tnZvqAjpB7rmJJDHh08-1" target="pX1Y0E-9tYjSFKPNbk9F-0">
          <mxGeometry relative="1" as="geometry" />
        </mxCell>
        <mxCell id="4tnZvqAjpB7rmJJDHh08-1" value="erp_cust_az12" style="rounded=1;whiteSpace=wrap;html=1;fillColor=#E3E3E3;strokeColor=#CDCDCD;fontColor=#000000;fontStyle=0;align=center;verticalAlign=middle;fontFamily=Helvetica;fontSize=12;gradientColor=none;" vertex="1" parent="nkz3tJl9-UWpVmMUFNEJ-1">
          <mxGeometry x="440.49" y="377" width="100" height="30.5" as="geometry" />
        </mxCell>
        <mxCell id="hSsj0N2nDLDuVcWF-qqE-6" style="rounded=1;orthogonalLoop=1;jettySize=auto;html=1;entryX=0;entryY=0.5;entryDx=0;entryDy=0;strokeColor=#4D4D4D;jumpStyle=gap;exitX=1;exitY=0.5;exitDx=0;exitDy=0;endArrow=blockThin;endFill=1;" edge="1" parent="nkz3tJl9-UWpVmMUFNEJ-1" source="4tnZvqAjpB7rmJJDHh08-2" target="pX1Y0E-9tYjSFKPNbk9F-0">
          <mxGeometry relative="1" as="geometry" />
        </mxCell>
        <mxCell id="4tnZvqAjpB7rmJJDHh08-2" value="erp_loc_a101" style="rounded=1;whiteSpace=wrap;html=1;fillColor=#E3E3E3;strokeColor=#CDCDCD;fontColor=#000000;fontStyle=0;align=center;verticalAlign=middle;fontFamily=Helvetica;fontSize=12;gradientColor=none;" vertex="1" parent="nkz3tJl9-UWpVmMUFNEJ-1">
          <mxGeometry x="440.49" y="414.5" width="100" height="30.5" as="geometry" />
        </mxCell>
        <mxCell id="hSsj0N2nDLDuVcWF-qqE-7" style="rounded=1;orthogonalLoop=1;jettySize=auto;html=1;entryX=0;entryY=0.5;entryDx=0;entryDy=0;strokeColor=#4D4D4D;jumpStyle=gap;exitX=1;exitY=0.5;exitDx=0;exitDy=0;endArrow=blockThin;endFill=1;" edge="1" parent="nkz3tJl9-UWpVmMUFNEJ-1" source="4tnZvqAjpB7rmJJDHh08-3" target="pX1Y0E-9tYjSFKPNbk9F-1">
          <mxGeometry relative="1" as="geometry" />
        </mxCell>
        <mxCell id="4tnZvqAjpB7rmJJDHh08-3" value="erp_px_cat_g1v2" style="rounded=1;whiteSpace=wrap;html=1;fillColor=#E3E3E3;strokeColor=#CDCDCD;fontColor=#000000;fontStyle=0;align=center;verticalAlign=middle;fontFamily=Helvetica;fontSize=12;gradientColor=none;" vertex="1" parent="nkz3tJl9-UWpVmMUFNEJ-1">
          <mxGeometry x="440.49" y="452.5" width="100" height="30.5" as="geometry" />
        </mxCell>
        <mxCell id="4tnZvqAjpB7rmJJDHh08-4" value="crm_prd_info" style="rounded=1;whiteSpace=wrap;html=1;fillColor=#E3E3E3;strokeColor=#CDCDCD;fontColor=#000000;fontStyle=0;align=center;verticalAlign=middle;fontFamily=Helvetica;fontSize=12;gradientColor=none;" vertex="1" parent="nkz3tJl9-UWpVmMUFNEJ-1">
          <mxGeometry x="440.49" y="286" width="100" height="30.5" as="geometry" />
        </mxCell>
        <mxCell id="hSsj0N2nDLDuVcWF-qqE-0" style="rounded=1;orthogonalLoop=1;jettySize=auto;html=1;entryX=0;entryY=0.5;entryDx=0;entryDy=0;strokeColor=#4D4D4D;jumpStyle=gap;exitX=1;exitY=0.5;exitDx=0;exitDy=0;endArrow=blockThin;endFill=1;" edge="1" parent="nkz3tJl9-UWpVmMUFNEJ-1" source="4tnZvqAjpB7rmJJDHh08-5" target="pX1Y0E-9tYjSFKPNbk9F-0">
          <mxGeometry relative="1" as="geometry" />
        </mxCell>
        <mxCell id="4tnZvqAjpB7rmJJDHh08-5" value="crm_cust_info" style="rounded=1;whiteSpace=wrap;html=1;fillColor=#E3E3E3;strokeColor=#CDCDCD;fontColor=#000000;fontStyle=0;align=center;verticalAlign=middle;fontFamily=Helvetica;fontSize=12;gradientColor=none;" vertex="1" parent="nkz3tJl9-UWpVmMUFNEJ-1">
          <mxGeometry x="440.49" y="248.5" width="100" height="30.5" as="geometry" />
        </mxCell>
        <mxCell id="pX1Y0E-9tYjSFKPNbk9F-0" value="dim_customers" style="rounded=1;whiteSpace=wrap;html=1;fillColor=#FFF377;strokeColor=#E3D86A;fontColor=#000000;fontStyle=0;align=center;verticalAlign=middle;fontFamily=Helvetica;fontSize=12;gradientColor=none;" vertex="1" parent="nkz3tJl9-UWpVmMUFNEJ-1">
          <mxGeometry x="600" y="346.5" width="100" height="30.5" as="geometry" />
        </mxCell>
        <mxCell id="pX1Y0E-9tYjSFKPNbk9F-1" value="dim_products" style="rounded=1;whiteSpace=wrap;html=1;fillColor=#FFF377;strokeColor=#E3D86A;fontColor=#000000;fontStyle=0;align=center;verticalAlign=middle;fontFamily=Helvetica;fontSize=12;gradientColor=none;" vertex="1" parent="nkz3tJl9-UWpVmMUFNEJ-1">
          <mxGeometry x="599.99" y="407.5" width="100" height="30.5" as="geometry" />
        </mxCell>
        <mxCell id="pX1Y0E-9tYjSFKPNbk9F-2" value="fact_sales" style="rounded=1;whiteSpace=wrap;html=1;fillColor=#FFF377;strokeColor=#E3D86A;fontColor=#000000;fontStyle=0;align=center;verticalAlign=middle;fontFamily=Helvetica;fontSize=12;gradientColor=none;" vertex="1" parent="nkz3tJl9-UWpVmMUFNEJ-1">
          <mxGeometry x="600" y="285" width="100" height="30.5" as="geometry" />
        </mxCell>
        <mxCell id="7mp8Rvlqa9ZPNGoXEv56-1" style="rounded=0;orthogonalLoop=1;jettySize=auto;html=1;strokeColor=#000000;exitX=1;exitY=0.5;exitDx=0;exitDy=0;curved=0;entryX=0.002;entryY=0.545;entryDx=0;entryDy=0;entryPerimeter=0;" edge="1" parent="nkz3tJl9-UWpVmMUFNEJ-1" source="pX1Y0E-9tYjSFKPNbk9F-0" target="nkz3tJl9-UWpVmMUFNEJ-5">
          <mxGeometry relative="1" as="geometry">
            <mxPoint x="770" y="362" as="targetPoint" />
          </mxGeometry>
        </mxCell>
        <mxCell id="oS15t05sNcSBjcn5sQV--0" value="Data Flow" style="text;strokeColor=none;fillColor=none;align=center;verticalAlign=middle;spacingLeft=4;spacingRight=4;overflow=hidden;points=[[0,0.5],[1,0.5]];portConstraint=eastwest;rotatable=0;whiteSpace=wrap;html=1;fontColor=#000000;fontSize=20;fontStyle=5;rounded=1;" vertex="1" parent="nkz3tJl9-UWpVmMUFNEJ-1">
          <mxGeometry x="336" y="98" width="308" height="52" as="geometry" />
        </mxCell>
        <mxCell id="B7bTrfnORJnj2FRjx0k3-0" style="orthogonalLoop=1;jettySize=auto;html=1;rounded=0;curved=0;strokeColor=#000000;" edge="1" parent="nkz3tJl9-UWpVmMUFNEJ-1" source="pX1Y0E-9tYjSFKPNbk9F-2">
          <mxGeometry relative="1" as="geometry">
            <mxPoint x="780" y="300" as="targetPoint" />
          </mxGeometry>
        </mxCell>
        <mxCell id="B7bTrfnORJnj2FRjx0k3-1" style="orthogonalLoop=1;jettySize=auto;html=1;rounded=0;curved=0;strokeColor=#000000;" edge="1" parent="nkz3tJl9-UWpVmMUFNEJ-1" source="pX1Y0E-9tYjSFKPNbk9F-1">
          <mxGeometry relative="1" as="geometry">
            <mxPoint x="780" y="422" as="targetPoint" />
          </mxGeometry>
        </mxCell>
      </root>
    </mxGraphModel>
  </diagram>
  <diagram id="LUNYAIQljyDRqWmcumS4" name="Data Integration (short)">
    <mxGraphModel dx="1558" dy="1096" grid="0" gridSize="10" guides="1" tooltips="1" connect="1" arrows="1" fold="1" page="0" pageScale="1" pageWidth="980" pageHeight="690" background="#ffffff" math="0" shadow="0">
      <root>
        <mxCell id="0" />
        <mxCell id="1" parent="0" />
        <mxCell id="wG5RIh0HXmOuW60H6ndi-1" value="" style="rounded=1;whiteSpace=wrap;html=1;fillColor=none;strokeColor=none;dashed=1;" vertex="1" parent="1">
          <mxGeometry x="-35" y="-43" width="1033" height="541" as="geometry" />
        </mxCell>
        <mxCell id="-OCfU5NIAkf7JMyIJFeV-35" value="" style="rounded=1;whiteSpace=wrap;html=1;fillColor=none;strokeColor=#4D4D4D;dashed=1;" parent="1" vertex="1">
          <mxGeometry x="500" y="60" width="420" height="380" as="geometry" />
        </mxCell>
        <mxCell id="-OCfU5NIAkf7JMyIJFeV-34" value="" style="rounded=1;whiteSpace=wrap;html=1;strokeColor=#4D4D4D;fillColor=none;dashed=1;" parent="1" vertex="1">
          <mxGeometry x="40" y="59" width="430" height="381" as="geometry" />
        </mxCell>
        <mxCell id="-OCfU5NIAkf7JMyIJFeV-7" value="crm_cust_info" style="swimlane;fontStyle=0;childLayout=stackLayout;horizontal=1;startSize=30;horizontalStack=0;resizeParent=1;resizeParentMax=0;resizeLast=0;collapsible=1;marginBottom=0;whiteSpace=wrap;html=1;rounded=1;swimlaneLine=1;fillColor=#C3D9F9;shadow=0;glass=0;strokeColor=#A9C4EB;fontColor=#000000;fontSize=14;" parent="1" vertex="1">
          <mxGeometry x="290" y="130" width="160" height="105" as="geometry" />
        </mxCell>
        <mxCell id="-OCfU5NIAkf7JMyIJFeV-8" value="cst_id" style="text;strokeColor=none;fillColor=none;align=center;verticalAlign=middle;spacingLeft=4;spacingRight=4;overflow=hidden;points=[[0,0.5],[1,0.5]];portConstraint=eastwest;rotatable=0;whiteSpace=wrap;html=1;fontColor=#000000;rounded=1;fontSize=14;" parent="-OCfU5NIAkf7JMyIJFeV-7" vertex="1">
          <mxGeometry y="30" width="160" height="30" as="geometry" />
        </mxCell>
        <mxCell id="-OCfU5NIAkf7JMyIJFeV-33" value="cst_key" style="text;strokeColor=none;fillColor=none;align=center;verticalAlign=middle;spacingLeft=4;spacingRight=4;overflow=hidden;points=[[0,0.5],[1,0.5]];portConstraint=eastwest;rotatable=0;whiteSpace=wrap;html=1;fontColor=#000000;rounded=1;fontSize=14;" parent="-OCfU5NIAkf7JMyIJFeV-7" vertex="1">
          <mxGeometry y="60" width="160" height="30" as="geometry" />
        </mxCell>
        <mxCell id="hwH5uwcP7auD-ugCGmVY-3" value="Customer" style="rounded=1;whiteSpace=wrap;html=1;fontStyle=1;fontColor=#000000;fillColor=#C9F5B2;fontSize=14;strokeColor=default;" vertex="1" parent="-OCfU5NIAkf7JMyIJFeV-7">
          <mxGeometry y="90" width="160" height="15" as="geometry" />
        </mxCell>
        <mxCell id="-OCfU5NIAkf7JMyIJFeV-11" value="crm_prd_info" style="swimlane;fontStyle=0;childLayout=stackLayout;horizontal=1;startSize=30;horizontalStack=0;resizeParent=1;resizeParentMax=0;resizeLast=0;collapsible=1;marginBottom=0;whiteSpace=wrap;html=1;rounded=1;swimlaneLine=1;fillColor=#C3D9F9;shadow=0;glass=0;strokeColor=#A9C4EB;fontColor=#000000;fontSize=14;" parent="1" vertex="1">
          <mxGeometry x="290" y="315" width="160" height="75" as="geometry" />
        </mxCell>
        <mxCell id="-OCfU5NIAkf7JMyIJFeV-12" value="prd_key" style="text;strokeColor=none;fillColor=none;align=center;verticalAlign=middle;spacingLeft=4;spacingRight=4;overflow=hidden;points=[[0,0.5],[1,0.5]];portConstraint=eastwest;rotatable=0;whiteSpace=wrap;html=1;fontColor=#000000;rounded=1;fontSize=14;" parent="-OCfU5NIAkf7JMyIJFeV-11" vertex="1">
          <mxGeometry y="30" width="160" height="30" as="geometry" />
        </mxCell>
        <mxCell id="hwH5uwcP7auD-ugCGmVY-5" value="Product" style="rounded=1;whiteSpace=wrap;html=1;fontStyle=1;fontColor=#000000;fillColor=#FFBDBD;fontSize=14;strokeColor=default;" vertex="1" parent="-OCfU5NIAkf7JMyIJFeV-11">
          <mxGeometry y="60" width="160" height="15" as="geometry" />
        </mxCell>
        <mxCell id="-OCfU5NIAkf7JMyIJFeV-15" value="crm_sales_details" style="swimlane;fontStyle=0;childLayout=stackLayout;horizontal=1;startSize=30;horizontalStack=0;resizeParent=1;resizeParentMax=0;resizeLast=0;collapsible=1;marginBottom=0;whiteSpace=wrap;html=1;rounded=1;align=center;verticalAlign=middle;spacingLeft=4;spacingRight=4;fontFamily=Helvetica;fontSize=14;fontColor=#000000;fillColor=#C3D9F9;gradientColor=none;shadow=0;glass=0;strokeColor=#A9C4EB;swimlaneLine=1;" parent="1" vertex="1">
          <mxGeometry x="60" y="205" width="160" height="105" as="geometry" />
        </mxCell>
        <mxCell id="-OCfU5NIAkf7JMyIJFeV-16" value="cst_id" style="text;strokeColor=none;fillColor=none;align=center;verticalAlign=middle;spacingLeft=4;spacingRight=4;overflow=hidden;points=[[0,0.5],[1,0.5]];portConstraint=eastwest;rotatable=0;whiteSpace=wrap;html=1;fontFamily=Helvetica;fontSize=14;fontColor=#000000;fontStyle=0;horizontal=1;" parent="-OCfU5NIAkf7JMyIJFeV-15" vertex="1">
          <mxGeometry y="30" width="160" height="30" as="geometry" />
        </mxCell>
        <mxCell id="-OCfU5NIAkf7JMyIJFeV-18" value="prd_key" style="text;strokeColor=none;fillColor=none;align=center;verticalAlign=middle;spacingLeft=4;spacingRight=4;overflow=hidden;points=[[0,0.5],[1,0.5]];portConstraint=eastwest;rotatable=0;whiteSpace=wrap;html=1;fontFamily=Helvetica;fontSize=14;fontColor=#000000;fontStyle=0;horizontal=1;" parent="-OCfU5NIAkf7JMyIJFeV-15" vertex="1">
          <mxGeometry y="60" width="160" height="30" as="geometry" />
        </mxCell>
        <mxCell id="hwH5uwcP7auD-ugCGmVY-6" value="Sales" style="rounded=1;whiteSpace=wrap;html=1;fontStyle=1;fontColor=#000000;fillColor=#FDC4FD;fontSize=14;strokeColor=default;" vertex="1" parent="-OCfU5NIAkf7JMyIJFeV-15">
          <mxGeometry y="90" width="160" height="15" as="geometry" />
        </mxCell>
        <mxCell id="-OCfU5NIAkf7JMyIJFeV-19" style="edgeStyle=orthogonalEdgeStyle;rounded=1;orthogonalLoop=1;jettySize=auto;html=1;exitX=1;exitY=0.5;exitDx=0;exitDy=0;entryX=0;entryY=0.5;entryDx=0;entryDy=0;strokeColor=#4D4D4D;curved=0;fontSize=14;" parent="1" source="-OCfU5NIAkf7JMyIJFeV-16" target="-OCfU5NIAkf7JMyIJFeV-8" edge="1">
          <mxGeometry relative="1" as="geometry" />
        </mxCell>
        <mxCell id="-OCfU5NIAkf7JMyIJFeV-20" style="edgeStyle=orthogonalEdgeStyle;rounded=1;orthogonalLoop=1;jettySize=auto;html=1;exitX=1;exitY=0.5;exitDx=0;exitDy=0;entryX=0;entryY=0.5;entryDx=0;entryDy=0;strokeColor=#4D4D4D;curved=0;fontSize=14;" parent="1" source="-OCfU5NIAkf7JMyIJFeV-18" target="-OCfU5NIAkf7JMyIJFeV-12" edge="1">
          <mxGeometry relative="1" as="geometry" />
        </mxCell>
        <mxCell id="-OCfU5NIAkf7JMyIJFeV-22" value="erp_cust_az12" style="swimlane;fontStyle=0;childLayout=stackLayout;horizontal=1;startSize=30;horizontalStack=0;resizeParent=1;resizeParentMax=0;resizeLast=0;collapsible=1;marginBottom=0;whiteSpace=wrap;html=1;rounded=1;swimlaneLine=1;fillColor=#FDECBA;shadow=0;glass=0;strokeColor=#FFE599;fontColor=#000000;fontSize=14;" parent="1" vertex="1">
          <mxGeometry x="630" y="110" width="160" height="75" as="geometry" />
        </mxCell>
        <mxCell id="-OCfU5NIAkf7JMyIJFeV-23" value="cid" style="text;strokeColor=none;fillColor=none;align=center;verticalAlign=middle;spacingLeft=4;spacingRight=4;overflow=hidden;points=[[0,0.5],[1,0.5]];portConstraint=eastwest;rotatable=0;whiteSpace=wrap;html=1;fontColor=#000000;rounded=1;fontSize=14;" parent="-OCfU5NIAkf7JMyIJFeV-22" vertex="1">
          <mxGeometry y="30" width="160" height="30" as="geometry" />
        </mxCell>
        <mxCell id="hwH5uwcP7auD-ugCGmVY-2" value="Customer" style="rounded=1;whiteSpace=wrap;html=1;fontStyle=1;fontColor=#000000;fillColor=#C9F5B2;fontSize=14;strokeColor=default;" vertex="1" parent="-OCfU5NIAkf7JMyIJFeV-22">
          <mxGeometry y="60" width="160" height="15" as="geometry" />
        </mxCell>
        <mxCell id="-OCfU5NIAkf7JMyIJFeV-24" style="edgeStyle=orthogonalEdgeStyle;rounded=1;orthogonalLoop=1;jettySize=auto;html=1;exitX=1;exitY=0.5;exitDx=0;exitDy=0;entryX=0;entryY=0.5;entryDx=0;entryDy=0;strokeColor=#4D4D4D;align=center;verticalAlign=middle;fontFamily=Helvetica;fontSize=14;fontColor=default;labelBackgroundColor=default;endArrow=classic;curved=0;" parent="1" source="-OCfU5NIAkf7JMyIJFeV-33" target="-OCfU5NIAkf7JMyIJFeV-23" edge="1">
          <mxGeometry relative="1" as="geometry" />
        </mxCell>
        <mxCell id="-OCfU5NIAkf7JMyIJFeV-26" value="erp_loc_a101" style="swimlane;fontStyle=0;childLayout=stackLayout;horizontal=1;startSize=30;horizontalStack=0;resizeParent=1;resizeParentMax=0;resizeLast=0;collapsible=1;marginBottom=0;whiteSpace=wrap;html=1;rounded=1;swimlaneLine=1;fillColor=#FDECBA;shadow=0;glass=0;strokeColor=#FFE599;fontColor=#000000;fontSize=14;" parent="1" vertex="1">
          <mxGeometry x="630" y="213" width="160" height="75" as="geometry" />
        </mxCell>
        <mxCell id="-OCfU5NIAkf7JMyIJFeV-27" value="cid" style="text;strokeColor=none;fillColor=none;align=center;verticalAlign=middle;spacingLeft=4;spacingRight=4;overflow=hidden;points=[[0,0.5],[1,0.5]];portConstraint=eastwest;rotatable=0;whiteSpace=wrap;html=1;fontColor=#000000;rounded=1;fontSize=14;" parent="-OCfU5NIAkf7JMyIJFeV-26" vertex="1">
          <mxGeometry y="30" width="160" height="30" as="geometry" />
        </mxCell>
        <mxCell id="hwH5uwcP7auD-ugCGmVY-1" value="Customer" style="rounded=1;whiteSpace=wrap;html=1;fontStyle=1;fontColor=#000000;fillColor=#C9F5B2;fontSize=14;strokeColor=default;" vertex="1" parent="-OCfU5NIAkf7JMyIJFeV-26">
          <mxGeometry y="60" width="160" height="15" as="geometry" />
        </mxCell>
        <mxCell id="-OCfU5NIAkf7JMyIJFeV-29" value="erp_px_cat_g1v2" style="swimlane;fontStyle=0;childLayout=stackLayout;horizontal=1;startSize=30;horizontalStack=0;resizeParent=1;resizeParentMax=0;resizeLast=0;collapsible=1;marginBottom=0;whiteSpace=wrap;html=1;rounded=1;swimlaneLine=1;fillColor=#FDECBA;shadow=0;glass=0;strokeColor=#FFE599;fontColor=#000000;fontSize=14;" parent="1" vertex="1">
          <mxGeometry x="630" y="315" width="160" height="75" as="geometry" />
        </mxCell>
        <mxCell id="-OCfU5NIAkf7JMyIJFeV-30" value="id" style="text;strokeColor=none;fillColor=none;align=center;verticalAlign=middle;spacingLeft=4;spacingRight=4;overflow=hidden;points=[[0,0.5],[1,0.5]];portConstraint=eastwest;rotatable=0;whiteSpace=wrap;html=1;fontColor=#000000;rounded=1;fontSize=14;" parent="-OCfU5NIAkf7JMyIJFeV-29" vertex="1">
          <mxGeometry y="30" width="160" height="30" as="geometry" />
        </mxCell>
        <mxCell id="hwH5uwcP7auD-ugCGmVY-4" value="Product" style="rounded=1;whiteSpace=wrap;html=1;fontStyle=1;fontColor=#000000;fillColor=#FFBDBD;fontSize=14;strokeColor=default;" vertex="1" parent="-OCfU5NIAkf7JMyIJFeV-29">
          <mxGeometry y="60" width="160" height="15" as="geometry" />
        </mxCell>
        <mxCell id="-OCfU5NIAkf7JMyIJFeV-31" style="edgeStyle=orthogonalEdgeStyle;rounded=1;orthogonalLoop=1;jettySize=auto;html=1;exitX=1;exitY=0.5;exitDx=0;exitDy=0;entryX=0;entryY=0.5;entryDx=0;entryDy=0;strokeColor=#4D4D4D;align=center;verticalAlign=middle;fontFamily=Helvetica;fontSize=14;fontColor=default;labelBackgroundColor=default;endArrow=classic;curved=0;" parent="1" source="-OCfU5NIAkf7JMyIJFeV-33" target="-OCfU5NIAkf7JMyIJFeV-27" edge="1">
          <mxGeometry relative="1" as="geometry" />
        </mxCell>
        <mxCell id="-OCfU5NIAkf7JMyIJFeV-32" style="edgeStyle=orthogonalEdgeStyle;rounded=1;orthogonalLoop=1;jettySize=auto;html=1;exitX=1;exitY=0.5;exitDx=0;exitDy=0;entryX=0;entryY=0.5;entryDx=0;entryDy=0;strokeColor=#4D4D4D;align=center;verticalAlign=middle;fontFamily=Helvetica;fontSize=14;fontColor=default;labelBackgroundColor=default;endArrow=classic;curved=0;" parent="1" source="-OCfU5NIAkf7JMyIJFeV-12" target="-OCfU5NIAkf7JMyIJFeV-30" edge="1">
          <mxGeometry relative="1" as="geometry" />
        </mxCell>
        <mxCell id="-OCfU5NIAkf7JMyIJFeV-37" value="CRM Tables" style="rounded=1;whiteSpace=wrap;html=1;strokeColor=none;fillColor=#C3D9F9;fontColor=#000000;fontStyle=1;fontSize=16;" parent="1" vertex="1">
          <mxGeometry x="195" y="45" width="120" height="30" as="geometry" />
        </mxCell>
        <mxCell id="-OCfU5NIAkf7JMyIJFeV-39" value="ERP Tables" style="rounded=1;whiteSpace=wrap;html=1;strokeColor=none;fillColor=#FDECBA;fontColor=#000000;fontStyle=1;fontSize=16;" parent="1" vertex="1">
          <mxGeometry x="650" y="45" width="120" height="30" as="geometry" />
        </mxCell>
        <mxCell id="wG5RIh0HXmOuW60H6ndi-2" value="Data Integration" style="text;strokeColor=none;fillColor=none;align=center;verticalAlign=middle;spacingLeft=4;spacingRight=4;overflow=hidden;points=[[0,0.5],[1,0.5]];portConstraint=eastwest;rotatable=0;whiteSpace=wrap;html=1;fontColor=#000000;fontSize=22;fontStyle=5;" vertex="1" parent="1">
          <mxGeometry x="325.5" y="-20" width="308" height="52" as="geometry" />
        </mxCell>
      </root>
    </mxGraphModel>
  </diagram>
  <diagram name="Data Integration" id="scgXb6BgSZJO2rg-DsfI">
    <mxGraphModel dx="1789" dy="1235" grid="0" gridSize="10" guides="1" tooltips="1" connect="1" arrows="1" fold="1" page="0" pageScale="1" pageWidth="980" pageHeight="690" background="#ffffff" math="0" shadow="0">
      <root>
        <mxCell id="7XfHFcqjjVqOLxyvLOGk-0" />
        <mxCell id="7XfHFcqjjVqOLxyvLOGk-1" parent="7XfHFcqjjVqOLxyvLOGk-0" />
        <mxCell id="AelAz62YwsaUb2ngZkdG-0" value="" style="rounded=1;whiteSpace=wrap;html=1;fillColor=none;strokeColor=none;dashed=1;" vertex="1" parent="7XfHFcqjjVqOLxyvLOGk-1">
          <mxGeometry x="-108" y="-42" width="1122" height="792" as="geometry" />
        </mxCell>
        <mxCell id="7XfHFcqjjVqOLxyvLOGk-2" value="" style="rounded=1;whiteSpace=wrap;html=1;fillColor=none;strokeColor=#4D4D4D;dashed=1;" vertex="1" parent="7XfHFcqjjVqOLxyvLOGk-1">
          <mxGeometry x="500" y="115.5" width="420" height="528" as="geometry" />
        </mxCell>
        <mxCell id="7XfHFcqjjVqOLxyvLOGk-3" value="" style="rounded=1;whiteSpace=wrap;html=1;strokeColor=#4D4D4D;fillColor=none;dashed=1;" vertex="1" parent="7XfHFcqjjVqOLxyvLOGk-1">
          <mxGeometry x="-10" y="59" width="480" height="641" as="geometry" />
        </mxCell>
        <mxCell id="7XfHFcqjjVqOLxyvLOGk-4" value="crm_cust_info" style="swimlane;fontStyle=0;childLayout=stackLayout;horizontal=1;startSize=30;horizontalStack=0;resizeParent=1;resizeParentMax=0;resizeLast=0;collapsible=1;marginBottom=0;whiteSpace=wrap;html=1;rounded=1;swimlaneLine=1;fillColor=#C3D9F9;shadow=0;glass=0;strokeColor=#A9C4EB;fontColor=#000000;fontSize=14;" vertex="1" parent="7XfHFcqjjVqOLxyvLOGk-1">
          <mxGeometry x="270" y="410" width="160" height="255" as="geometry" />
        </mxCell>
        <mxCell id="7XfHFcqjjVqOLxyvLOGk-5" value="cst_id" style="text;strokeColor=none;fillColor=none;align=center;verticalAlign=middle;spacingLeft=4;spacingRight=4;overflow=hidden;points=[[0,0.5],[1,0.5]];portConstraint=eastwest;rotatable=0;whiteSpace=wrap;html=1;fontColor=#000000;rounded=1;fontSize=14;" vertex="1" parent="7XfHFcqjjVqOLxyvLOGk-4">
          <mxGeometry y="30" width="160" height="30" as="geometry" />
        </mxCell>
        <mxCell id="7XfHFcqjjVqOLxyvLOGk-6" value="cst_key" style="text;strokeColor=none;fillColor=none;align=center;verticalAlign=middle;spacingLeft=4;spacingRight=4;overflow=hidden;points=[[0,0.5],[1,0.5]];portConstraint=eastwest;rotatable=0;whiteSpace=wrap;html=1;fontColor=#000000;rounded=1;fontSize=14;" vertex="1" parent="7XfHFcqjjVqOLxyvLOGk-4">
          <mxGeometry y="60" width="160" height="30" as="geometry" />
        </mxCell>
        <mxCell id="LBmZ0xWh_nJkp5UDB0s4-2" value="cst_firstname" style="text;strokeColor=none;fillColor=none;align=center;verticalAlign=middle;spacingLeft=4;spacingRight=4;overflow=hidden;points=[[0,0.5],[1,0.5]];portConstraint=eastwest;rotatable=0;whiteSpace=wrap;html=1;fontColor=#000000;rounded=1;fontSize=14;" vertex="1" parent="7XfHFcqjjVqOLxyvLOGk-4">
          <mxGeometry y="90" width="160" height="30" as="geometry" />
        </mxCell>
        <mxCell id="LBmZ0xWh_nJkp5UDB0s4-1" value="cst_lastname" style="text;strokeColor=none;fillColor=none;align=center;verticalAlign=middle;spacingLeft=4;spacingRight=4;overflow=hidden;points=[[0,0.5],[1,0.5]];portConstraint=eastwest;rotatable=0;whiteSpace=wrap;html=1;fontColor=#000000;rounded=1;fontSize=14;" vertex="1" parent="7XfHFcqjjVqOLxyvLOGk-4">
          <mxGeometry y="120" width="160" height="30" as="geometry" />
        </mxCell>
        <mxCell id="LBmZ0xWh_nJkp5UDB0s4-0" value="cst_marital_status" style="text;strokeColor=none;fillColor=none;align=center;verticalAlign=middle;spacingLeft=4;spacingRight=4;overflow=hidden;points=[[0,0.5],[1,0.5]];portConstraint=eastwest;rotatable=0;whiteSpace=wrap;html=1;fontColor=#000000;rounded=1;fontSize=14;" vertex="1" parent="7XfHFcqjjVqOLxyvLOGk-4">
          <mxGeometry y="150" width="160" height="30" as="geometry" />
        </mxCell>
        <mxCell id="LBmZ0xWh_nJkp5UDB0s4-4" value="cst_gndr" style="text;strokeColor=none;fillColor=none;align=center;verticalAlign=middle;spacingLeft=4;spacingRight=4;overflow=hidden;points=[[0,0.5],[1,0.5]];portConstraint=eastwest;rotatable=0;whiteSpace=wrap;html=1;fontColor=#000000;rounded=1;fontSize=14;" vertex="1" parent="7XfHFcqjjVqOLxyvLOGk-4">
          <mxGeometry y="180" width="160" height="30" as="geometry" />
        </mxCell>
        <mxCell id="LBmZ0xWh_nJkp5UDB0s4-3" value="cst_create_date" style="text;strokeColor=none;fillColor=none;align=center;verticalAlign=middle;spacingLeft=4;spacingRight=4;overflow=hidden;points=[[0,0.5],[1,0.5]];portConstraint=eastwest;rotatable=0;whiteSpace=wrap;html=1;fontColor=#000000;rounded=1;fontSize=14;" vertex="1" parent="7XfHFcqjjVqOLxyvLOGk-4">
          <mxGeometry y="210" width="160" height="30" as="geometry" />
        </mxCell>
        <mxCell id="7XfHFcqjjVqOLxyvLOGk-7" value="Customer" style="rounded=1;whiteSpace=wrap;html=1;fontStyle=1;fontColor=#000000;fillColor=#C9F5B2;fontSize=14;strokeColor=default;" vertex="1" parent="7XfHFcqjjVqOLxyvLOGk-4">
          <mxGeometry y="240" width="160" height="15" as="geometry" />
        </mxCell>
        <mxCell id="7XfHFcqjjVqOLxyvLOGk-8" value="crm_prd_info" style="swimlane;fontStyle=0;childLayout=stackLayout;horizontal=1;startSize=30;horizontalStack=0;resizeParent=1;resizeParentMax=0;resizeLast=0;collapsible=1;marginBottom=0;whiteSpace=wrap;html=1;rounded=1;swimlaneLine=1;fillColor=#C3D9F9;shadow=0;glass=0;strokeColor=#A9C4EB;fontColor=#000000;fontSize=14;" vertex="1" parent="7XfHFcqjjVqOLxyvLOGk-1">
          <mxGeometry x="270" y="107" width="160" height="285" as="geometry" />
        </mxCell>
        <mxCell id="LBmZ0xWh_nJkp5UDB0s4-5" value="prd_id" style="text;strokeColor=none;fillColor=none;align=center;verticalAlign=middle;spacingLeft=4;spacingRight=4;overflow=hidden;points=[[0,0.5],[1,0.5]];portConstraint=eastwest;rotatable=0;whiteSpace=wrap;html=1;fontColor=#000000;rounded=1;fontSize=14;" vertex="1" parent="7XfHFcqjjVqOLxyvLOGk-8">
          <mxGeometry y="30" width="160" height="30" as="geometry" />
        </mxCell>
        <mxCell id="LBmZ0xWh_nJkp5UDB0s4-6" value="cat_id" style="text;strokeColor=none;fillColor=none;align=center;verticalAlign=middle;spacingLeft=4;spacingRight=4;overflow=hidden;points=[[0,0.5],[1,0.5]];portConstraint=eastwest;rotatable=0;whiteSpace=wrap;html=1;fontColor=#000000;rounded=1;fontSize=14;" vertex="1" parent="7XfHFcqjjVqOLxyvLOGk-8">
          <mxGeometry y="60" width="160" height="30" as="geometry" />
        </mxCell>
        <mxCell id="7XfHFcqjjVqOLxyvLOGk-9" value="prd_key" style="text;strokeColor=none;fillColor=none;align=center;verticalAlign=middle;spacingLeft=4;spacingRight=4;overflow=hidden;points=[[0,0.5],[1,0.5]];portConstraint=eastwest;rotatable=0;whiteSpace=wrap;html=1;fontColor=#000000;rounded=1;fontSize=14;" vertex="1" parent="7XfHFcqjjVqOLxyvLOGk-8">
          <mxGeometry y="90" width="160" height="30" as="geometry" />
        </mxCell>
        <mxCell id="LBmZ0xWh_nJkp5UDB0s4-11" value="prd_nm" style="text;strokeColor=none;fillColor=none;align=center;verticalAlign=middle;spacingLeft=4;spacingRight=4;overflow=hidden;points=[[0,0.5],[1,0.5]];portConstraint=eastwest;rotatable=0;whiteSpace=wrap;html=1;fontColor=#000000;rounded=1;fontSize=14;" vertex="1" parent="7XfHFcqjjVqOLxyvLOGk-8">
          <mxGeometry y="120" width="160" height="30" as="geometry" />
        </mxCell>
        <mxCell id="LBmZ0xWh_nJkp5UDB0s4-10" value="prd_cost" style="text;strokeColor=none;fillColor=none;align=center;verticalAlign=middle;spacingLeft=4;spacingRight=4;overflow=hidden;points=[[0,0.5],[1,0.5]];portConstraint=eastwest;rotatable=0;whiteSpace=wrap;html=1;fontColor=#000000;rounded=1;fontSize=14;" vertex="1" parent="7XfHFcqjjVqOLxyvLOGk-8">
          <mxGeometry y="150" width="160" height="30" as="geometry" />
        </mxCell>
        <mxCell id="LBmZ0xWh_nJkp5UDB0s4-9" value="prd_line" style="text;strokeColor=none;fillColor=none;align=center;verticalAlign=middle;spacingLeft=4;spacingRight=4;overflow=hidden;points=[[0,0.5],[1,0.5]];portConstraint=eastwest;rotatable=0;whiteSpace=wrap;html=1;fontColor=#000000;rounded=1;fontSize=14;" vertex="1" parent="7XfHFcqjjVqOLxyvLOGk-8">
          <mxGeometry y="180" width="160" height="30" as="geometry" />
        </mxCell>
        <mxCell id="LBmZ0xWh_nJkp5UDB0s4-8" value="prd_start_dt" style="text;strokeColor=none;fillColor=none;align=center;verticalAlign=middle;spacingLeft=4;spacingRight=4;overflow=hidden;points=[[0,0.5],[1,0.5]];portConstraint=eastwest;rotatable=0;whiteSpace=wrap;html=1;fontColor=#000000;rounded=1;fontSize=14;" vertex="1" parent="7XfHFcqjjVqOLxyvLOGk-8">
          <mxGeometry y="210" width="160" height="30" as="geometry" />
        </mxCell>
        <mxCell id="LBmZ0xWh_nJkp5UDB0s4-7" value="prd_end_dt" style="text;strokeColor=none;fillColor=none;align=center;verticalAlign=middle;spacingLeft=4;spacingRight=4;overflow=hidden;points=[[0,0.5],[1,0.5]];portConstraint=eastwest;rotatable=0;whiteSpace=wrap;html=1;fontColor=#000000;rounded=1;fontSize=14;" vertex="1" parent="7XfHFcqjjVqOLxyvLOGk-8">
          <mxGeometry y="240" width="160" height="30" as="geometry" />
        </mxCell>
        <mxCell id="7XfHFcqjjVqOLxyvLOGk-10" value="Product" style="rounded=1;whiteSpace=wrap;html=1;fontStyle=1;fontColor=#000000;fillColor=#FFBDBD;fontSize=14;strokeColor=default;" vertex="1" parent="7XfHFcqjjVqOLxyvLOGk-8">
          <mxGeometry y="270" width="160" height="15" as="geometry" />
        </mxCell>
        <mxCell id="7XfHFcqjjVqOLxyvLOGk-11" value="crm_sales_details" style="swimlane;fontStyle=0;childLayout=stackLayout;horizontal=1;startSize=30;horizontalStack=0;resizeParent=1;resizeParentMax=0;resizeLast=0;collapsible=1;marginBottom=0;whiteSpace=wrap;html=1;rounded=1;align=center;verticalAlign=middle;spacingLeft=4;spacingRight=4;fontFamily=Helvetica;fontSize=14;fontColor=#000000;fillColor=#C3D9F9;gradientColor=none;shadow=0;glass=0;strokeColor=#A9C4EB;swimlaneLine=1;" vertex="1" parent="7XfHFcqjjVqOLxyvLOGk-1">
          <mxGeometry x="20" y="210" width="160" height="315" as="geometry" />
        </mxCell>
        <mxCell id="LBmZ0xWh_nJkp5UDB0s4-12" value="sls_order_num" style="text;strokeColor=none;fillColor=none;align=center;verticalAlign=middle;spacingLeft=4;spacingRight=4;overflow=hidden;points=[[0,0.5],[1,0.5]];portConstraint=eastwest;rotatable=0;whiteSpace=wrap;html=1;fontFamily=Helvetica;fontSize=14;fontColor=#000000;fontStyle=0;horizontal=1;" vertex="1" parent="7XfHFcqjjVqOLxyvLOGk-11">
          <mxGeometry y="30" width="160" height="30" as="geometry" />
        </mxCell>
        <mxCell id="7XfHFcqjjVqOLxyvLOGk-13" value="sls_prd_key" style="text;strokeColor=none;fillColor=none;align=center;verticalAlign=middle;spacingLeft=4;spacingRight=4;overflow=hidden;points=[[0,0.5],[1,0.5]];portConstraint=eastwest;rotatable=0;whiteSpace=wrap;html=1;fontFamily=Helvetica;fontSize=14;fontColor=#000000;fontStyle=0;horizontal=1;" vertex="1" parent="7XfHFcqjjVqOLxyvLOGk-11">
          <mxGeometry y="60" width="160" height="30" as="geometry" />
        </mxCell>
        <mxCell id="7XfHFcqjjVqOLxyvLOGk-12" value="sls_cust_id" style="text;strokeColor=none;fillColor=none;align=center;verticalAlign=middle;spacingLeft=4;spacingRight=4;overflow=hidden;points=[[0,0.5],[1,0.5]];portConstraint=eastwest;rotatable=0;whiteSpace=wrap;html=1;fontFamily=Helvetica;fontSize=14;fontColor=#000000;fontStyle=0;horizontal=1;" vertex="1" parent="7XfHFcqjjVqOLxyvLOGk-11">
          <mxGeometry y="90" width="160" height="30" as="geometry" />
        </mxCell>
        <mxCell id="LBmZ0xWh_nJkp5UDB0s4-13" value="sls_order_dt" style="text;strokeColor=none;fillColor=none;align=center;verticalAlign=middle;spacingLeft=4;spacingRight=4;overflow=hidden;points=[[0,0.5],[1,0.5]];portConstraint=eastwest;rotatable=0;whiteSpace=wrap;html=1;fontFamily=Helvetica;fontSize=14;fontColor=#000000;fontStyle=0;horizontal=1;" vertex="1" parent="7XfHFcqjjVqOLxyvLOGk-11">
          <mxGeometry y="120" width="160" height="30" as="geometry" />
        </mxCell>
        <mxCell id="LBmZ0xWh_nJkp5UDB0s4-16" value="sls_ship_dt" style="text;strokeColor=none;fillColor=none;align=center;verticalAlign=middle;spacingLeft=4;spacingRight=4;overflow=hidden;points=[[0,0.5],[1,0.5]];portConstraint=eastwest;rotatable=0;whiteSpace=wrap;html=1;fontFamily=Helvetica;fontSize=14;fontColor=#000000;fontStyle=0;horizontal=1;" vertex="1" parent="7XfHFcqjjVqOLxyvLOGk-11">
          <mxGeometry y="150" width="160" height="30" as="geometry" />
        </mxCell>
        <mxCell id="LBmZ0xWh_nJkp5UDB0s4-15" value="sls_due_dt" style="text;strokeColor=none;fillColor=none;align=center;verticalAlign=middle;spacingLeft=4;spacingRight=4;overflow=hidden;points=[[0,0.5],[1,0.5]];portConstraint=eastwest;rotatable=0;whiteSpace=wrap;html=1;fontFamily=Helvetica;fontSize=14;fontColor=#000000;fontStyle=0;horizontal=1;" vertex="1" parent="7XfHFcqjjVqOLxyvLOGk-11">
          <mxGeometry y="180" width="160" height="30" as="geometry" />
        </mxCell>
        <mxCell id="LBmZ0xWh_nJkp5UDB0s4-14" value="sls_sales" style="text;strokeColor=none;fillColor=none;align=center;verticalAlign=middle;spacingLeft=4;spacingRight=4;overflow=hidden;points=[[0,0.5],[1,0.5]];portConstraint=eastwest;rotatable=0;whiteSpace=wrap;html=1;fontFamily=Helvetica;fontSize=14;fontColor=#000000;fontStyle=0;horizontal=1;" vertex="1" parent="7XfHFcqjjVqOLxyvLOGk-11">
          <mxGeometry y="210" width="160" height="30" as="geometry" />
        </mxCell>
        <mxCell id="LBmZ0xWh_nJkp5UDB0s4-18" value="sls_quantity" style="text;strokeColor=none;fillColor=none;align=center;verticalAlign=middle;spacingLeft=4;spacingRight=4;overflow=hidden;points=[[0,0.5],[1,0.5]];portConstraint=eastwest;rotatable=0;whiteSpace=wrap;html=1;fontFamily=Helvetica;fontSize=14;fontColor=#000000;fontStyle=0;horizontal=1;" vertex="1" parent="7XfHFcqjjVqOLxyvLOGk-11">
          <mxGeometry y="240" width="160" height="30" as="geometry" />
        </mxCell>
        <mxCell id="LBmZ0xWh_nJkp5UDB0s4-17" value="sls_price" style="text;strokeColor=none;fillColor=none;align=center;verticalAlign=middle;spacingLeft=4;spacingRight=4;overflow=hidden;points=[[0,0.5],[1,0.5]];portConstraint=eastwest;rotatable=0;whiteSpace=wrap;html=1;fontFamily=Helvetica;fontSize=14;fontColor=#000000;fontStyle=0;horizontal=1;" vertex="1" parent="7XfHFcqjjVqOLxyvLOGk-11">
          <mxGeometry y="270" width="160" height="30" as="geometry" />
        </mxCell>
        <mxCell id="7XfHFcqjjVqOLxyvLOGk-14" value="Sales" style="rounded=1;whiteSpace=wrap;html=1;fontStyle=1;fontColor=#000000;fillColor=#FDC4FD;fontSize=14;strokeColor=default;" vertex="1" parent="7XfHFcqjjVqOLxyvLOGk-11">
          <mxGeometry y="300" width="160" height="15" as="geometry" />
        </mxCell>
        <mxCell id="7XfHFcqjjVqOLxyvLOGk-15" style="edgeStyle=orthogonalEdgeStyle;rounded=1;orthogonalLoop=1;jettySize=auto;html=1;exitX=1;exitY=0.5;exitDx=0;exitDy=0;entryX=0;entryY=0.5;entryDx=0;entryDy=0;strokeColor=#4D4D4D;curved=0;fontSize=14;" edge="1" parent="7XfHFcqjjVqOLxyvLOGk-1" source="7XfHFcqjjVqOLxyvLOGk-12" target="7XfHFcqjjVqOLxyvLOGk-5">
          <mxGeometry relative="1" as="geometry" />
        </mxCell>
        <mxCell id="7XfHFcqjjVqOLxyvLOGk-16" style="edgeStyle=orthogonalEdgeStyle;rounded=1;orthogonalLoop=1;jettySize=auto;html=1;exitX=1;exitY=0.5;exitDx=0;exitDy=0;entryX=0;entryY=0.5;entryDx=0;entryDy=0;strokeColor=#4D4D4D;curved=0;fontSize=14;" edge="1" parent="7XfHFcqjjVqOLxyvLOGk-1" source="7XfHFcqjjVqOLxyvLOGk-13" target="7XfHFcqjjVqOLxyvLOGk-9">
          <mxGeometry relative="1" as="geometry" />
        </mxCell>
        <mxCell id="7XfHFcqjjVqOLxyvLOGk-17" value="erp_cust_az12" style="swimlane;fontStyle=0;childLayout=stackLayout;horizontal=1;startSize=30;horizontalStack=0;resizeParent=1;resizeParentMax=0;resizeLast=0;collapsible=1;marginBottom=0;whiteSpace=wrap;html=1;rounded=1;swimlaneLine=1;fillColor=#FDECBA;shadow=0;glass=0;strokeColor=#FFE599;fontColor=#000000;fontSize=14;" vertex="1" parent="7XfHFcqjjVqOLxyvLOGk-1">
          <mxGeometry x="635" y="354" width="160" height="135" as="geometry" />
        </mxCell>
        <mxCell id="7XfHFcqjjVqOLxyvLOGk-18" value="cid" style="text;strokeColor=none;fillColor=none;align=center;verticalAlign=middle;spacingLeft=4;spacingRight=4;overflow=hidden;points=[[0,0.5],[1,0.5]];portConstraint=eastwest;rotatable=0;whiteSpace=wrap;html=1;fontColor=#000000;rounded=1;fontSize=14;" vertex="1" parent="7XfHFcqjjVqOLxyvLOGk-17">
          <mxGeometry y="30" width="160" height="30" as="geometry" />
        </mxCell>
        <mxCell id="LBmZ0xWh_nJkp5UDB0s4-21" value="bdate" style="text;strokeColor=none;fillColor=none;align=center;verticalAlign=middle;spacingLeft=4;spacingRight=4;overflow=hidden;points=[[0,0.5],[1,0.5]];portConstraint=eastwest;rotatable=0;whiteSpace=wrap;html=1;fontColor=#000000;rounded=1;fontSize=14;" vertex="1" parent="7XfHFcqjjVqOLxyvLOGk-17">
          <mxGeometry y="60" width="160" height="30" as="geometry" />
        </mxCell>
        <mxCell id="LBmZ0xWh_nJkp5UDB0s4-20" value="gen" style="text;strokeColor=none;fillColor=none;align=center;verticalAlign=middle;spacingLeft=4;spacingRight=4;overflow=hidden;points=[[0,0.5],[1,0.5]];portConstraint=eastwest;rotatable=0;whiteSpace=wrap;html=1;fontColor=#000000;rounded=1;fontSize=14;" vertex="1" parent="7XfHFcqjjVqOLxyvLOGk-17">
          <mxGeometry y="90" width="160" height="30" as="geometry" />
        </mxCell>
        <mxCell id="7XfHFcqjjVqOLxyvLOGk-19" value="Customer" style="rounded=1;whiteSpace=wrap;html=1;fontStyle=1;fontColor=#000000;fillColor=#C9F5B2;fontSize=14;strokeColor=default;" vertex="1" parent="7XfHFcqjjVqOLxyvLOGk-17">
          <mxGeometry y="120" width="160" height="15" as="geometry" />
        </mxCell>
        <mxCell id="7XfHFcqjjVqOLxyvLOGk-20" style="edgeStyle=orthogonalEdgeStyle;rounded=1;orthogonalLoop=1;jettySize=auto;html=1;exitX=1;exitY=0.5;exitDx=0;exitDy=0;entryX=0;entryY=0.5;entryDx=0;entryDy=0;strokeColor=#4D4D4D;align=center;verticalAlign=middle;fontFamily=Helvetica;fontSize=14;fontColor=default;labelBackgroundColor=default;endArrow=classic;curved=0;" edge="1" parent="7XfHFcqjjVqOLxyvLOGk-1" source="7XfHFcqjjVqOLxyvLOGk-6" target="7XfHFcqjjVqOLxyvLOGk-18">
          <mxGeometry relative="1" as="geometry" />
        </mxCell>
        <mxCell id="7XfHFcqjjVqOLxyvLOGk-21" value="erp_loc_a101" style="swimlane;fontStyle=0;childLayout=stackLayout;horizontal=1;startSize=30;horizontalStack=0;resizeParent=1;resizeParentMax=0;resizeLast=0;collapsible=1;marginBottom=0;whiteSpace=wrap;html=1;rounded=1;swimlaneLine=1;fillColor=#FDECBA;shadow=0;glass=0;strokeColor=#FFE599;fontColor=#000000;fontSize=14;" vertex="1" parent="7XfHFcqjjVqOLxyvLOGk-1">
          <mxGeometry x="635" y="513" width="160" height="105" as="geometry" />
        </mxCell>
        <mxCell id="7XfHFcqjjVqOLxyvLOGk-22" value="cid" style="text;strokeColor=none;fillColor=none;align=center;verticalAlign=middle;spacingLeft=4;spacingRight=4;overflow=hidden;points=[[0,0.5],[1,0.5]];portConstraint=eastwest;rotatable=0;whiteSpace=wrap;html=1;fontColor=#000000;rounded=1;fontSize=14;" vertex="1" parent="7XfHFcqjjVqOLxyvLOGk-21">
          <mxGeometry y="30" width="160" height="30" as="geometry" />
        </mxCell>
        <mxCell id="LBmZ0xWh_nJkp5UDB0s4-22" value="cntry" style="text;strokeColor=none;fillColor=none;align=center;verticalAlign=middle;spacingLeft=4;spacingRight=4;overflow=hidden;points=[[0,0.5],[1,0.5]];portConstraint=eastwest;rotatable=0;whiteSpace=wrap;html=1;fontColor=#000000;rounded=1;fontSize=14;" vertex="1" parent="7XfHFcqjjVqOLxyvLOGk-21">
          <mxGeometry y="60" width="160" height="30" as="geometry" />
        </mxCell>
        <mxCell id="7XfHFcqjjVqOLxyvLOGk-23" value="Customer" style="rounded=1;whiteSpace=wrap;html=1;fontStyle=1;fontColor=#000000;fillColor=#C9F5B2;fontSize=14;strokeColor=default;" vertex="1" parent="7XfHFcqjjVqOLxyvLOGk-21">
          <mxGeometry y="90" width="160" height="15" as="geometry" />
        </mxCell>
        <mxCell id="7XfHFcqjjVqOLxyvLOGk-24" value="erp_px_cat_g1v2" style="swimlane;fontStyle=0;childLayout=stackLayout;horizontal=1;startSize=30;horizontalStack=0;resizeParent=1;resizeParentMax=0;resizeLast=0;collapsible=1;marginBottom=0;whiteSpace=wrap;html=1;rounded=1;swimlaneLine=1;fillColor=#FDECBA;shadow=0;glass=0;strokeColor=#FFE599;fontColor=#000000;fontSize=14;" vertex="1" parent="7XfHFcqjjVqOLxyvLOGk-1">
          <mxGeometry x="632" y="167" width="160" height="165" as="geometry" />
        </mxCell>
        <mxCell id="7XfHFcqjjVqOLxyvLOGk-25" value="id" style="text;strokeColor=none;fillColor=none;align=center;verticalAlign=middle;spacingLeft=4;spacingRight=4;overflow=hidden;points=[[0,0.5],[1,0.5]];portConstraint=eastwest;rotatable=0;whiteSpace=wrap;html=1;fontColor=#000000;rounded=1;fontSize=14;" vertex="1" parent="7XfHFcqjjVqOLxyvLOGk-24">
          <mxGeometry y="30" width="160" height="30" as="geometry" />
        </mxCell>
        <mxCell id="LBmZ0xWh_nJkp5UDB0s4-25" value="cat" style="text;strokeColor=none;fillColor=none;align=center;verticalAlign=middle;spacingLeft=4;spacingRight=4;overflow=hidden;points=[[0,0.5],[1,0.5]];portConstraint=eastwest;rotatable=0;whiteSpace=wrap;html=1;fontColor=#000000;rounded=1;fontSize=14;" vertex="1" parent="7XfHFcqjjVqOLxyvLOGk-24">
          <mxGeometry y="60" width="160" height="30" as="geometry" />
        </mxCell>
        <mxCell id="LBmZ0xWh_nJkp5UDB0s4-24" value="subcat" style="text;strokeColor=none;fillColor=none;align=center;verticalAlign=middle;spacingLeft=4;spacingRight=4;overflow=hidden;points=[[0,0.5],[1,0.5]];portConstraint=eastwest;rotatable=0;whiteSpace=wrap;html=1;fontColor=#000000;rounded=1;fontSize=14;" vertex="1" parent="7XfHFcqjjVqOLxyvLOGk-24">
          <mxGeometry y="90" width="160" height="30" as="geometry" />
        </mxCell>
        <mxCell id="LBmZ0xWh_nJkp5UDB0s4-26" value="maintenance" style="text;strokeColor=none;fillColor=none;align=center;verticalAlign=middle;spacingLeft=4;spacingRight=4;overflow=hidden;points=[[0,0.5],[1,0.5]];portConstraint=eastwest;rotatable=0;whiteSpace=wrap;html=1;fontColor=#000000;rounded=1;fontSize=14;" vertex="1" parent="7XfHFcqjjVqOLxyvLOGk-24">
          <mxGeometry y="120" width="160" height="30" as="geometry" />
        </mxCell>
        <mxCell id="7XfHFcqjjVqOLxyvLOGk-26" value="Product" style="rounded=1;whiteSpace=wrap;html=1;fontStyle=1;fontColor=#000000;fillColor=#FFBDBD;fontSize=14;strokeColor=default;" vertex="1" parent="7XfHFcqjjVqOLxyvLOGk-24">
          <mxGeometry y="150" width="160" height="15" as="geometry" />
        </mxCell>
        <mxCell id="7XfHFcqjjVqOLxyvLOGk-27" style="edgeStyle=orthogonalEdgeStyle;rounded=1;orthogonalLoop=1;jettySize=auto;html=1;exitX=1;exitY=0.5;exitDx=0;exitDy=0;entryX=0;entryY=0.5;entryDx=0;entryDy=0;strokeColor=#4D4D4D;align=center;verticalAlign=middle;fontFamily=Helvetica;fontSize=14;fontColor=default;labelBackgroundColor=default;endArrow=classic;curved=0;" edge="1" parent="7XfHFcqjjVqOLxyvLOGk-1" source="7XfHFcqjjVqOLxyvLOGk-6" target="7XfHFcqjjVqOLxyvLOGk-22">
          <mxGeometry relative="1" as="geometry" />
        </mxCell>
        <mxCell id="7XfHFcqjjVqOLxyvLOGk-28" style="edgeStyle=orthogonalEdgeStyle;rounded=1;orthogonalLoop=1;jettySize=auto;html=1;exitX=1;exitY=0.5;exitDx=0;exitDy=0;entryX=0;entryY=0.5;entryDx=0;entryDy=0;strokeColor=#4D4D4D;align=center;verticalAlign=middle;fontFamily=Helvetica;fontSize=14;fontColor=default;labelBackgroundColor=default;endArrow=classic;curved=0;" edge="1" parent="7XfHFcqjjVqOLxyvLOGk-1" source="7XfHFcqjjVqOLxyvLOGk-9" target="7XfHFcqjjVqOLxyvLOGk-25">
          <mxGeometry relative="1" as="geometry" />
        </mxCell>
        <mxCell id="7XfHFcqjjVqOLxyvLOGk-29" value="CRM Tables" style="rounded=1;whiteSpace=wrap;html=1;strokeColor=none;fillColor=#C3D9F9;fontColor=#000000;fontStyle=1;fontSize=16;" vertex="1" parent="7XfHFcqjjVqOLxyvLOGk-1">
          <mxGeometry x="170" y="45" width="120" height="30" as="geometry" />
        </mxCell>
        <mxCell id="7XfHFcqjjVqOLxyvLOGk-30" value="ERP Tables" style="rounded=1;whiteSpace=wrap;html=1;strokeColor=none;fillColor=#FDECBA;fontColor=#000000;fontStyle=1;fontSize=16;" vertex="1" parent="7XfHFcqjjVqOLxyvLOGk-1">
          <mxGeometry x="648" y="101" width="120" height="30" as="geometry" />
        </mxCell>
        <mxCell id="4gkci-HBZQ1rn77qPlFc-1" value="Data Integration" style="text;strokeColor=none;fillColor=none;align=center;verticalAlign=middle;spacingLeft=4;spacingRight=4;overflow=hidden;points=[[0,0.5],[1,0.5]];portConstraint=eastwest;rotatable=0;whiteSpace=wrap;html=1;fontColor=#000000;fontSize=22;fontStyle=5;" vertex="1" parent="7XfHFcqjjVqOLxyvLOGk-1">
          <mxGeometry x="306" y="-23" width="308" height="52" as="geometry" />
        </mxCell>
      </root>
    </mxGraphModel>
  </diagram>
  <diagram name="Data Mart" id="clSqp7L7jMc3RZvIJtyX">
    <mxGraphModel dx="1097" dy="1459" grid="0" gridSize="10" guides="1" tooltips="1" connect="1" arrows="1" fold="1" page="0" pageScale="1" pageWidth="980" pageHeight="690" background="#ffffff" math="0" shadow="0">
      <root>
        <mxCell id="WurSQEnUnvx9Y4QMuyyj-0" />
        <mxCell id="WurSQEnUnvx9Y4QMuyyj-1" parent="WurSQEnUnvx9Y4QMuyyj-0" />
        <mxCell id="K1q0FQxzSbRY7w-CEowa-0" value="" style="rounded=1;whiteSpace=wrap;html=1;fillColor=none;strokeColor=none;dashed=1;" vertex="1" parent="WurSQEnUnvx9Y4QMuyyj-1">
          <mxGeometry x="30" y="-611" width="935" height="514" as="geometry" />
        </mxCell>
        <mxCell id="hfMLLcwVXfEM2pdoRaDb-0" value="&lt;font style=&quot;color: rgb(0, 0, 0);&quot;&gt;gold.dim_customers&lt;/font&gt;" style="shape=table;startSize=30;container=1;collapsible=1;childLayout=tableLayout;fixedRows=1;rowLines=0;fontStyle=1;align=center;resizeLast=1;html=1;rounded=1;fillColor=#fff2cc;gradientColor=none;strokeColor=#d6b656;fontColor=#000000;fontSize=14;" vertex="1" parent="WurSQEnUnvx9Y4QMuyyj-1">
          <mxGeometry x="120" y="-495" width="200" height="330" as="geometry" />
        </mxCell>
        <mxCell id="hfMLLcwVXfEM2pdoRaDb-1" value="" style="shape=tableRow;horizontal=0;startSize=0;swimlaneHead=0;swimlaneBody=0;fillColor=none;collapsible=0;dropTarget=0;points=[[0,0.5],[1,0.5]];portConstraint=eastwest;top=0;left=0;right=0;bottom=1;fontColor=#000000;rounded=1;fontSize=14;" vertex="1" parent="hfMLLcwVXfEM2pdoRaDb-0">
          <mxGeometry y="30" width="200" height="30" as="geometry" />
        </mxCell>
        <mxCell id="hfMLLcwVXfEM2pdoRaDb-2" value="PK" style="shape=partialRectangle;connectable=0;fillColor=none;top=0;left=0;bottom=0;right=0;fontStyle=1;overflow=hidden;whiteSpace=wrap;html=1;fontColor=#000000;rounded=1;fontSize=14;" vertex="1" parent="hfMLLcwVXfEM2pdoRaDb-1">
          <mxGeometry width="40" height="30" as="geometry">
            <mxRectangle width="40" height="30" as="alternateBounds" />
          </mxGeometry>
        </mxCell>
        <mxCell id="hfMLLcwVXfEM2pdoRaDb-3" value="customer_key" style="shape=partialRectangle;connectable=0;fillColor=none;top=0;left=0;bottom=0;right=0;align=left;spacingLeft=6;fontStyle=5;overflow=hidden;whiteSpace=wrap;html=1;fontColor=#000000;rounded=1;fontSize=14;labelBackgroundColor=#E6E6E6;" vertex="1" parent="hfMLLcwVXfEM2pdoRaDb-1">
          <mxGeometry x="40" width="160" height="30" as="geometry">
            <mxRectangle width="160" height="30" as="alternateBounds" />
          </mxGeometry>
        </mxCell>
        <mxCell id="hfMLLcwVXfEM2pdoRaDb-4" value="" style="shape=tableRow;horizontal=0;startSize=0;swimlaneHead=0;swimlaneBody=0;fillColor=none;collapsible=0;dropTarget=0;points=[[0,0.5],[1,0.5]];portConstraint=eastwest;top=0;left=0;right=0;bottom=0;fontColor=#000000;rounded=1;fontSize=14;" vertex="1" parent="hfMLLcwVXfEM2pdoRaDb-0">
          <mxGeometry y="60" width="200" height="30" as="geometry" />
        </mxCell>
        <mxCell id="hfMLLcwVXfEM2pdoRaDb-5" value="" style="shape=partialRectangle;connectable=0;fillColor=none;top=0;left=0;bottom=0;right=0;editable=1;overflow=hidden;whiteSpace=wrap;html=1;fontColor=#000000;rounded=1;fontSize=14;" vertex="1" parent="hfMLLcwVXfEM2pdoRaDb-4">
          <mxGeometry width="40" height="30" as="geometry">
            <mxRectangle width="40" height="30" as="alternateBounds" />
          </mxGeometry>
        </mxCell>
        <mxCell id="hfMLLcwVXfEM2pdoRaDb-6" value="customer_id&lt;span style=&quot;white-space: pre;&quot;&gt;&#x9;&lt;/span&gt;" style="shape=partialRectangle;connectable=0;fillColor=none;top=0;left=0;bottom=0;right=0;align=left;spacingLeft=6;overflow=hidden;whiteSpace=wrap;html=1;fontColor=#000000;rounded=1;fontSize=14;" vertex="1" parent="hfMLLcwVXfEM2pdoRaDb-4">
          <mxGeometry x="40" width="160" height="30" as="geometry">
            <mxRectangle width="160" height="30" as="alternateBounds" />
          </mxGeometry>
        </mxCell>
        <mxCell id="hfMLLcwVXfEM2pdoRaDb-7" value="" style="shape=tableRow;horizontal=0;startSize=0;swimlaneHead=0;swimlaneBody=0;fillColor=none;collapsible=0;dropTarget=0;points=[[0,0.5],[1,0.5]];portConstraint=eastwest;top=0;left=0;right=0;bottom=0;fontColor=#000000;rounded=1;fontSize=14;" vertex="1" parent="hfMLLcwVXfEM2pdoRaDb-0">
          <mxGeometry y="90" width="200" height="30" as="geometry" />
        </mxCell>
        <mxCell id="hfMLLcwVXfEM2pdoRaDb-8" value="&lt;span style=&quot;white-space: pre;&quot;&gt;&#x9;&lt;/span&gt;" style="shape=partialRectangle;connectable=0;fillColor=none;top=0;left=0;bottom=0;right=0;editable=1;overflow=hidden;whiteSpace=wrap;html=1;fontColor=#000000;rounded=1;fontSize=14;" vertex="1" parent="hfMLLcwVXfEM2pdoRaDb-7">
          <mxGeometry width="40" height="30" as="geometry">
            <mxRectangle width="40" height="30" as="alternateBounds" />
          </mxGeometry>
        </mxCell>
        <mxCell id="hfMLLcwVXfEM2pdoRaDb-9" value="customer_number&lt;span style=&quot;white-space: pre;&quot;&gt;&#x9;&lt;/span&gt;" style="shape=partialRectangle;connectable=0;fillColor=none;top=0;left=0;bottom=0;right=0;align=left;spacingLeft=6;overflow=hidden;whiteSpace=wrap;html=1;fontColor=#000000;rounded=1;fontSize=14;" vertex="1" parent="hfMLLcwVXfEM2pdoRaDb-7">
          <mxGeometry x="40" width="160" height="30" as="geometry">
            <mxRectangle width="160" height="30" as="alternateBounds" />
          </mxGeometry>
        </mxCell>
        <mxCell id="hfMLLcwVXfEM2pdoRaDb-10" value="" style="shape=tableRow;horizontal=0;startSize=0;swimlaneHead=0;swimlaneBody=0;fillColor=none;collapsible=0;dropTarget=0;points=[[0,0.5],[1,0.5]];portConstraint=eastwest;top=0;left=0;right=0;bottom=0;fontColor=#000000;rounded=1;fontSize=14;" vertex="1" parent="hfMLLcwVXfEM2pdoRaDb-0">
          <mxGeometry y="120" width="200" height="30" as="geometry" />
        </mxCell>
        <mxCell id="hfMLLcwVXfEM2pdoRaDb-11" value="" style="shape=partialRectangle;connectable=0;fillColor=none;top=0;left=0;bottom=0;right=0;editable=1;overflow=hidden;whiteSpace=wrap;html=1;fontColor=#000000;rounded=1;fontSize=14;" vertex="1" parent="hfMLLcwVXfEM2pdoRaDb-10">
          <mxGeometry width="40" height="30" as="geometry">
            <mxRectangle width="40" height="30" as="alternateBounds" />
          </mxGeometry>
        </mxCell>
        <mxCell id="hfMLLcwVXfEM2pdoRaDb-12" value="first_name" style="shape=partialRectangle;connectable=0;fillColor=none;top=0;left=0;bottom=0;right=0;align=left;spacingLeft=6;overflow=hidden;whiteSpace=wrap;html=1;fontColor=#000000;rounded=1;fontSize=14;" vertex="1" parent="hfMLLcwVXfEM2pdoRaDb-10">
          <mxGeometry x="40" width="160" height="30" as="geometry">
            <mxRectangle width="160" height="30" as="alternateBounds" />
          </mxGeometry>
        </mxCell>
        <mxCell id="hfMLLcwVXfEM2pdoRaDb-39" value="" style="shape=tableRow;horizontal=0;startSize=0;swimlaneHead=0;swimlaneBody=0;fillColor=none;collapsible=0;dropTarget=0;points=[[0,0.5],[1,0.5]];portConstraint=eastwest;top=0;left=0;right=0;bottom=0;fontColor=#000000;rounded=1;fontSize=14;" vertex="1" parent="hfMLLcwVXfEM2pdoRaDb-0">
          <mxGeometry y="150" width="200" height="30" as="geometry" />
        </mxCell>
        <mxCell id="hfMLLcwVXfEM2pdoRaDb-40" value="" style="shape=partialRectangle;connectable=0;fillColor=none;top=0;left=0;bottom=0;right=0;editable=1;overflow=hidden;whiteSpace=wrap;html=1;fontColor=#000000;rounded=1;fontSize=14;" vertex="1" parent="hfMLLcwVXfEM2pdoRaDb-39">
          <mxGeometry width="40" height="30" as="geometry">
            <mxRectangle width="40" height="30" as="alternateBounds" />
          </mxGeometry>
        </mxCell>
        <mxCell id="hfMLLcwVXfEM2pdoRaDb-41" value="last_name" style="shape=partialRectangle;connectable=0;fillColor=none;top=0;left=0;bottom=0;right=0;align=left;spacingLeft=6;overflow=hidden;whiteSpace=wrap;html=1;fontColor=#000000;rounded=1;fontSize=14;" vertex="1" parent="hfMLLcwVXfEM2pdoRaDb-39">
          <mxGeometry x="40" width="160" height="30" as="geometry">
            <mxRectangle width="160" height="30" as="alternateBounds" />
          </mxGeometry>
        </mxCell>
        <mxCell id="hfMLLcwVXfEM2pdoRaDb-42" value="" style="shape=tableRow;horizontal=0;startSize=0;swimlaneHead=0;swimlaneBody=0;fillColor=none;collapsible=0;dropTarget=0;points=[[0,0.5],[1,0.5]];portConstraint=eastwest;top=0;left=0;right=0;bottom=0;fontColor=#000000;rounded=1;fontSize=14;" vertex="1" parent="hfMLLcwVXfEM2pdoRaDb-0">
          <mxGeometry y="180" width="200" height="30" as="geometry" />
        </mxCell>
        <mxCell id="hfMLLcwVXfEM2pdoRaDb-43" value="" style="shape=partialRectangle;connectable=0;fillColor=none;top=0;left=0;bottom=0;right=0;editable=1;overflow=hidden;whiteSpace=wrap;html=1;fontColor=#000000;rounded=1;fontSize=14;" vertex="1" parent="hfMLLcwVXfEM2pdoRaDb-42">
          <mxGeometry width="40" height="30" as="geometry">
            <mxRectangle width="40" height="30" as="alternateBounds" />
          </mxGeometry>
        </mxCell>
        <mxCell id="hfMLLcwVXfEM2pdoRaDb-44" value="country" style="shape=partialRectangle;connectable=0;fillColor=none;top=0;left=0;bottom=0;right=0;align=left;spacingLeft=6;overflow=hidden;whiteSpace=wrap;html=1;fontColor=#000000;rounded=1;fontSize=14;" vertex="1" parent="hfMLLcwVXfEM2pdoRaDb-42">
          <mxGeometry x="40" width="160" height="30" as="geometry">
            <mxRectangle width="160" height="30" as="alternateBounds" />
          </mxGeometry>
        </mxCell>
        <mxCell id="hfMLLcwVXfEM2pdoRaDb-45" value="" style="shape=tableRow;horizontal=0;startSize=0;swimlaneHead=0;swimlaneBody=0;fillColor=none;collapsible=0;dropTarget=0;points=[[0,0.5],[1,0.5]];portConstraint=eastwest;top=0;left=0;right=0;bottom=0;fontColor=#000000;rounded=1;fontSize=14;" vertex="1" parent="hfMLLcwVXfEM2pdoRaDb-0">
          <mxGeometry y="210" width="200" height="30" as="geometry" />
        </mxCell>
        <mxCell id="hfMLLcwVXfEM2pdoRaDb-46" value="" style="shape=partialRectangle;connectable=0;fillColor=none;top=0;left=0;bottom=0;right=0;editable=1;overflow=hidden;whiteSpace=wrap;html=1;fontColor=#000000;rounded=1;fontSize=14;" vertex="1" parent="hfMLLcwVXfEM2pdoRaDb-45">
          <mxGeometry width="40" height="30" as="geometry">
            <mxRectangle width="40" height="30" as="alternateBounds" />
          </mxGeometry>
        </mxCell>
        <mxCell id="hfMLLcwVXfEM2pdoRaDb-47" value="gender" style="shape=partialRectangle;connectable=0;fillColor=none;top=0;left=0;bottom=0;right=0;align=left;spacingLeft=6;overflow=hidden;whiteSpace=wrap;html=1;fontColor=#000000;rounded=1;fontSize=14;" vertex="1" parent="hfMLLcwVXfEM2pdoRaDb-45">
          <mxGeometry x="40" width="160" height="30" as="geometry">
            <mxRectangle width="160" height="30" as="alternateBounds" />
          </mxGeometry>
        </mxCell>
        <mxCell id="hfMLLcwVXfEM2pdoRaDb-48" value="" style="shape=tableRow;horizontal=0;startSize=0;swimlaneHead=0;swimlaneBody=0;fillColor=none;collapsible=0;dropTarget=0;points=[[0,0.5],[1,0.5]];portConstraint=eastwest;top=0;left=0;right=0;bottom=0;fontColor=#000000;rounded=1;fontSize=14;" vertex="1" parent="hfMLLcwVXfEM2pdoRaDb-0">
          <mxGeometry y="240" width="200" height="30" as="geometry" />
        </mxCell>
        <mxCell id="hfMLLcwVXfEM2pdoRaDb-49" value="" style="shape=partialRectangle;connectable=0;fillColor=none;top=0;left=0;bottom=0;right=0;editable=1;overflow=hidden;whiteSpace=wrap;html=1;fontColor=#000000;rounded=1;fontSize=14;" vertex="1" parent="hfMLLcwVXfEM2pdoRaDb-48">
          <mxGeometry width="40" height="30" as="geometry">
            <mxRectangle width="40" height="30" as="alternateBounds" />
          </mxGeometry>
        </mxCell>
        <mxCell id="hfMLLcwVXfEM2pdoRaDb-50" value="marital_status" style="shape=partialRectangle;connectable=0;fillColor=none;top=0;left=0;bottom=0;right=0;align=left;spacingLeft=6;overflow=hidden;whiteSpace=wrap;html=1;fontColor=#000000;rounded=1;fontSize=14;" vertex="1" parent="hfMLLcwVXfEM2pdoRaDb-48">
          <mxGeometry x="40" width="160" height="30" as="geometry">
            <mxRectangle width="160" height="30" as="alternateBounds" />
          </mxGeometry>
        </mxCell>
        <mxCell id="hfMLLcwVXfEM2pdoRaDb-54" value="" style="shape=tableRow;horizontal=0;startSize=0;swimlaneHead=0;swimlaneBody=0;fillColor=none;collapsible=0;dropTarget=0;points=[[0,0.5],[1,0.5]];portConstraint=eastwest;top=0;left=0;right=0;bottom=0;fontColor=#000000;rounded=1;fontSize=14;" vertex="1" parent="hfMLLcwVXfEM2pdoRaDb-0">
          <mxGeometry y="270" width="200" height="30" as="geometry" />
        </mxCell>
        <mxCell id="hfMLLcwVXfEM2pdoRaDb-55" value="" style="shape=partialRectangle;connectable=0;fillColor=none;top=0;left=0;bottom=0;right=0;editable=1;overflow=hidden;whiteSpace=wrap;html=1;fontColor=#000000;rounded=1;fontSize=14;" vertex="1" parent="hfMLLcwVXfEM2pdoRaDb-54">
          <mxGeometry width="40" height="30" as="geometry">
            <mxRectangle width="40" height="30" as="alternateBounds" />
          </mxGeometry>
        </mxCell>
        <mxCell id="hfMLLcwVXfEM2pdoRaDb-56" value="birthdate" style="shape=partialRectangle;connectable=0;fillColor=none;top=0;left=0;bottom=0;right=0;align=left;spacingLeft=6;overflow=hidden;whiteSpace=wrap;html=1;fontColor=#000000;rounded=1;fontSize=14;" vertex="1" parent="hfMLLcwVXfEM2pdoRaDb-54">
          <mxGeometry x="40" width="160" height="30" as="geometry">
            <mxRectangle width="160" height="30" as="alternateBounds" />
          </mxGeometry>
        </mxCell>
        <mxCell id="hfMLLcwVXfEM2pdoRaDb-57" value="" style="shape=tableRow;horizontal=0;startSize=0;swimlaneHead=0;swimlaneBody=0;fillColor=none;collapsible=0;dropTarget=0;points=[[0,0.5],[1,0.5]];portConstraint=eastwest;top=0;left=0;right=0;bottom=0;fontColor=#000000;rounded=1;fontSize=14;" vertex="1" parent="hfMLLcwVXfEM2pdoRaDb-0">
          <mxGeometry y="300" width="200" height="30" as="geometry" />
        </mxCell>
        <mxCell id="hfMLLcwVXfEM2pdoRaDb-58" value="" style="shape=partialRectangle;connectable=0;fillColor=none;top=0;left=0;bottom=0;right=0;editable=1;overflow=hidden;whiteSpace=wrap;html=1;fontColor=#000000;rounded=1;fontSize=14;" vertex="1" parent="hfMLLcwVXfEM2pdoRaDb-57">
          <mxGeometry width="40" height="30" as="geometry">
            <mxRectangle width="40" height="30" as="alternateBounds" />
          </mxGeometry>
        </mxCell>
        <mxCell id="hfMLLcwVXfEM2pdoRaDb-59" value="create_date" style="shape=partialRectangle;connectable=0;fillColor=none;top=0;left=0;bottom=0;right=0;align=left;spacingLeft=6;overflow=hidden;whiteSpace=wrap;html=1;fontColor=#000000;rounded=1;fontSize=14;" vertex="1" parent="hfMLLcwVXfEM2pdoRaDb-57">
          <mxGeometry x="40" width="160" height="30" as="geometry">
            <mxRectangle width="160" height="30" as="alternateBounds" />
          </mxGeometry>
        </mxCell>
        <mxCell id="hfMLLcwVXfEM2pdoRaDb-13" value="gold.fact_sales" style="shape=table;startSize=30;container=1;collapsible=1;childLayout=tableLayout;fixedRows=1;rowLines=0;fontStyle=1;align=center;resizeLast=1;html=1;rounded=1;fillColor=#dae8fc;gradientColor=none;strokeColor=#6c8ebf;fontColor=#000000;fontSize=14;" vertex="1" parent="WurSQEnUnvx9Y4QMuyyj-1">
          <mxGeometry x="400" y="-480" width="200" height="300" as="geometry" />
        </mxCell>
        <mxCell id="hfMLLcwVXfEM2pdoRaDb-14" value="" style="shape=tableRow;horizontal=0;startSize=0;swimlaneHead=0;swimlaneBody=0;fillColor=none;collapsible=0;dropTarget=0;points=[[0,0.5],[1,0.5]];portConstraint=eastwest;top=0;left=0;right=0;bottom=1;fontColor=#000000;rounded=1;fontSize=14;" vertex="1" parent="hfMLLcwVXfEM2pdoRaDb-13">
          <mxGeometry y="30" width="200" height="30" as="geometry" />
        </mxCell>
        <mxCell id="hfMLLcwVXfEM2pdoRaDb-15" value="" style="shape=partialRectangle;connectable=0;fillColor=none;top=0;left=0;bottom=0;right=0;fontStyle=1;overflow=hidden;whiteSpace=wrap;html=1;fontColor=#000000;rounded=1;fontSize=14;" vertex="1" parent="hfMLLcwVXfEM2pdoRaDb-14">
          <mxGeometry width="40" height="30" as="geometry">
            <mxRectangle width="40" height="30" as="alternateBounds" />
          </mxGeometry>
        </mxCell>
        <mxCell id="hfMLLcwVXfEM2pdoRaDb-16" value="order_number" style="shape=partialRectangle;connectable=0;fillColor=none;top=0;left=0;bottom=0;right=0;align=left;spacingLeft=6;fontStyle=0;overflow=hidden;whiteSpace=wrap;html=1;fontColor=#000000;rounded=1;fontSize=14;" vertex="1" parent="hfMLLcwVXfEM2pdoRaDb-14">
          <mxGeometry x="40" width="160" height="30" as="geometry">
            <mxRectangle width="160" height="30" as="alternateBounds" />
          </mxGeometry>
        </mxCell>
        <mxCell id="hfMLLcwVXfEM2pdoRaDb-17" value="" style="shape=tableRow;horizontal=0;startSize=0;swimlaneHead=0;swimlaneBody=0;fillColor=none;collapsible=0;dropTarget=0;points=[[0,0.5],[1,0.5]];portConstraint=eastwest;top=0;left=0;right=0;bottom=0;fontColor=#000000;rounded=1;fontSize=14;" vertex="1" parent="hfMLLcwVXfEM2pdoRaDb-13">
          <mxGeometry y="60" width="200" height="30" as="geometry" />
        </mxCell>
        <mxCell id="hfMLLcwVXfEM2pdoRaDb-18" value="FK1" style="shape=partialRectangle;connectable=0;fillColor=none;top=0;left=0;bottom=0;right=0;editable=1;overflow=hidden;whiteSpace=wrap;html=1;fontColor=#000000;rounded=1;fontSize=14;" vertex="1" parent="hfMLLcwVXfEM2pdoRaDb-17">
          <mxGeometry width="40" height="30" as="geometry">
            <mxRectangle width="40" height="30" as="alternateBounds" />
          </mxGeometry>
        </mxCell>
        <mxCell id="hfMLLcwVXfEM2pdoRaDb-19" value="product_key" style="shape=partialRectangle;connectable=0;fillColor=none;top=0;left=0;bottom=0;right=0;align=left;spacingLeft=6;overflow=hidden;whiteSpace=wrap;html=1;fontColor=#000000;rounded=1;fontSize=14;shadow=0;labelBackgroundColor=#E6E6E6;" vertex="1" parent="hfMLLcwVXfEM2pdoRaDb-17">
          <mxGeometry x="40" width="160" height="30" as="geometry">
            <mxRectangle width="160" height="30" as="alternateBounds" />
          </mxGeometry>
        </mxCell>
        <mxCell id="hfMLLcwVXfEM2pdoRaDb-20" value="" style="shape=tableRow;horizontal=0;startSize=0;swimlaneHead=0;swimlaneBody=0;fillColor=none;collapsible=0;dropTarget=0;points=[[0,0.5],[1,0.5]];portConstraint=eastwest;top=0;left=0;right=0;bottom=0;fontColor=#000000;rounded=1;fontSize=14;" vertex="1" parent="hfMLLcwVXfEM2pdoRaDb-13">
          <mxGeometry y="90" width="200" height="30" as="geometry" />
        </mxCell>
        <mxCell id="hfMLLcwVXfEM2pdoRaDb-21" value="FK2" style="shape=partialRectangle;connectable=0;fillColor=none;top=0;left=0;bottom=0;right=0;editable=1;overflow=hidden;whiteSpace=wrap;html=1;fontColor=#000000;rounded=1;fontSize=14;" vertex="1" parent="hfMLLcwVXfEM2pdoRaDb-20">
          <mxGeometry width="40" height="30" as="geometry">
            <mxRectangle width="40" height="30" as="alternateBounds" />
          </mxGeometry>
        </mxCell>
        <mxCell id="hfMLLcwVXfEM2pdoRaDb-22" value="customer_key" style="shape=partialRectangle;connectable=0;fillColor=none;top=0;left=0;bottom=0;right=0;align=left;spacingLeft=6;overflow=hidden;whiteSpace=wrap;html=1;fontColor=#000000;rounded=1;fontSize=14;shadow=0;labelBackgroundColor=#E6E6E6;" vertex="1" parent="hfMLLcwVXfEM2pdoRaDb-20">
          <mxGeometry x="40" width="160" height="30" as="geometry">
            <mxRectangle width="160" height="30" as="alternateBounds" />
          </mxGeometry>
        </mxCell>
        <mxCell id="hfMLLcwVXfEM2pdoRaDb-23" value="" style="shape=tableRow;horizontal=0;startSize=0;swimlaneHead=0;swimlaneBody=0;fillColor=none;collapsible=0;dropTarget=0;points=[[0,0.5],[1,0.5]];portConstraint=eastwest;top=0;left=0;right=0;bottom=0;fontColor=#000000;rounded=1;fontSize=14;" vertex="1" parent="hfMLLcwVXfEM2pdoRaDb-13">
          <mxGeometry y="120" width="200" height="30" as="geometry" />
        </mxCell>
        <mxCell id="hfMLLcwVXfEM2pdoRaDb-24" value="" style="shape=partialRectangle;connectable=0;fillColor=none;top=0;left=0;bottom=0;right=0;editable=1;overflow=hidden;whiteSpace=wrap;html=1;fontColor=#000000;rounded=1;fontSize=14;" vertex="1" parent="hfMLLcwVXfEM2pdoRaDb-23">
          <mxGeometry width="40" height="30" as="geometry">
            <mxRectangle width="40" height="30" as="alternateBounds" />
          </mxGeometry>
        </mxCell>
        <mxCell id="hfMLLcwVXfEM2pdoRaDb-25" value="order_date" style="shape=partialRectangle;connectable=0;fillColor=none;top=0;left=0;bottom=0;right=0;align=left;spacingLeft=6;overflow=hidden;whiteSpace=wrap;html=1;fontColor=#000000;rounded=1;fontSize=14;" vertex="1" parent="hfMLLcwVXfEM2pdoRaDb-23">
          <mxGeometry x="40" width="160" height="30" as="geometry">
            <mxRectangle width="160" height="30" as="alternateBounds" />
          </mxGeometry>
        </mxCell>
        <mxCell id="hfMLLcwVXfEM2pdoRaDb-60" value="" style="shape=tableRow;horizontal=0;startSize=0;swimlaneHead=0;swimlaneBody=0;fillColor=none;collapsible=0;dropTarget=0;points=[[0,0.5],[1,0.5]];portConstraint=eastwest;top=0;left=0;right=0;bottom=0;fontColor=#000000;rounded=1;fontSize=14;" vertex="1" parent="hfMLLcwVXfEM2pdoRaDb-13">
          <mxGeometry y="150" width="200" height="30" as="geometry" />
        </mxCell>
        <mxCell id="hfMLLcwVXfEM2pdoRaDb-61" value="" style="shape=partialRectangle;connectable=0;fillColor=none;top=0;left=0;bottom=0;right=0;editable=1;overflow=hidden;whiteSpace=wrap;html=1;fontColor=#000000;rounded=1;fontSize=14;" vertex="1" parent="hfMLLcwVXfEM2pdoRaDb-60">
          <mxGeometry width="40" height="30" as="geometry">
            <mxRectangle width="40" height="30" as="alternateBounds" />
          </mxGeometry>
        </mxCell>
        <mxCell id="hfMLLcwVXfEM2pdoRaDb-62" value="shipping_date" style="shape=partialRectangle;connectable=0;fillColor=none;top=0;left=0;bottom=0;right=0;align=left;spacingLeft=6;overflow=hidden;whiteSpace=wrap;html=1;fontColor=#000000;rounded=1;fontSize=14;" vertex="1" parent="hfMLLcwVXfEM2pdoRaDb-60">
          <mxGeometry x="40" width="160" height="30" as="geometry">
            <mxRectangle width="160" height="30" as="alternateBounds" />
          </mxGeometry>
        </mxCell>
        <mxCell id="hfMLLcwVXfEM2pdoRaDb-63" value="" style="shape=tableRow;horizontal=0;startSize=0;swimlaneHead=0;swimlaneBody=0;fillColor=none;collapsible=0;dropTarget=0;points=[[0,0.5],[1,0.5]];portConstraint=eastwest;top=0;left=0;right=0;bottom=0;fontColor=#000000;rounded=1;fontSize=14;" vertex="1" parent="hfMLLcwVXfEM2pdoRaDb-13">
          <mxGeometry y="180" width="200" height="30" as="geometry" />
        </mxCell>
        <mxCell id="hfMLLcwVXfEM2pdoRaDb-64" value="" style="shape=partialRectangle;connectable=0;fillColor=none;top=0;left=0;bottom=0;right=0;editable=1;overflow=hidden;whiteSpace=wrap;html=1;fontColor=#000000;rounded=1;fontSize=14;" vertex="1" parent="hfMLLcwVXfEM2pdoRaDb-63">
          <mxGeometry width="40" height="30" as="geometry">
            <mxRectangle width="40" height="30" as="alternateBounds" />
          </mxGeometry>
        </mxCell>
        <mxCell id="hfMLLcwVXfEM2pdoRaDb-65" value="due_date" style="shape=partialRectangle;connectable=0;fillColor=none;top=0;left=0;bottom=0;right=0;align=left;spacingLeft=6;overflow=hidden;whiteSpace=wrap;html=1;fontColor=#000000;rounded=1;fontSize=14;" vertex="1" parent="hfMLLcwVXfEM2pdoRaDb-63">
          <mxGeometry x="40" width="160" height="30" as="geometry">
            <mxRectangle width="160" height="30" as="alternateBounds" />
          </mxGeometry>
        </mxCell>
        <mxCell id="hfMLLcwVXfEM2pdoRaDb-66" value="" style="shape=tableRow;horizontal=0;startSize=0;swimlaneHead=0;swimlaneBody=0;fillColor=none;collapsible=0;dropTarget=0;points=[[0,0.5],[1,0.5]];portConstraint=eastwest;top=0;left=0;right=0;bottom=0;fontColor=#000000;rounded=1;fontSize=14;" vertex="1" parent="hfMLLcwVXfEM2pdoRaDb-13">
          <mxGeometry y="210" width="200" height="30" as="geometry" />
        </mxCell>
        <mxCell id="hfMLLcwVXfEM2pdoRaDb-67" value="" style="shape=partialRectangle;connectable=0;fillColor=none;top=0;left=0;bottom=0;right=0;editable=1;overflow=hidden;whiteSpace=wrap;html=1;fontColor=#000000;rounded=1;fontSize=14;" vertex="1" parent="hfMLLcwVXfEM2pdoRaDb-66">
          <mxGeometry width="40" height="30" as="geometry">
            <mxRectangle width="40" height="30" as="alternateBounds" />
          </mxGeometry>
        </mxCell>
        <mxCell id="hfMLLcwVXfEM2pdoRaDb-68" value="price" style="shape=partialRectangle;connectable=0;fillColor=none;top=0;left=0;bottom=0;right=0;align=left;spacingLeft=6;overflow=hidden;whiteSpace=wrap;html=1;fontColor=#000000;rounded=1;fontSize=14;" vertex="1" parent="hfMLLcwVXfEM2pdoRaDb-66">
          <mxGeometry x="40" width="160" height="30" as="geometry">
            <mxRectangle width="160" height="30" as="alternateBounds" />
          </mxGeometry>
        </mxCell>
        <mxCell id="hfMLLcwVXfEM2pdoRaDb-69" value="" style="shape=tableRow;horizontal=0;startSize=0;swimlaneHead=0;swimlaneBody=0;fillColor=none;collapsible=0;dropTarget=0;points=[[0,0.5],[1,0.5]];portConstraint=eastwest;top=0;left=0;right=0;bottom=0;fontColor=#000000;rounded=1;fontSize=14;" vertex="1" parent="hfMLLcwVXfEM2pdoRaDb-13">
          <mxGeometry y="240" width="200" height="30" as="geometry" />
        </mxCell>
        <mxCell id="hfMLLcwVXfEM2pdoRaDb-70" value="" style="shape=partialRectangle;connectable=0;fillColor=none;top=0;left=0;bottom=0;right=0;editable=1;overflow=hidden;whiteSpace=wrap;html=1;fontColor=#000000;rounded=1;fontSize=14;" vertex="1" parent="hfMLLcwVXfEM2pdoRaDb-69">
          <mxGeometry width="40" height="30" as="geometry">
            <mxRectangle width="40" height="30" as="alternateBounds" />
          </mxGeometry>
        </mxCell>
        <mxCell id="hfMLLcwVXfEM2pdoRaDb-71" value="quantity" style="shape=partialRectangle;connectable=0;fillColor=none;top=0;left=0;bottom=0;right=0;align=left;spacingLeft=6;overflow=hidden;whiteSpace=wrap;html=1;fontColor=#000000;rounded=1;fontSize=14;" vertex="1" parent="hfMLLcwVXfEM2pdoRaDb-69">
          <mxGeometry x="40" width="160" height="30" as="geometry">
            <mxRectangle width="160" height="30" as="alternateBounds" />
          </mxGeometry>
        </mxCell>
        <mxCell id="hfMLLcwVXfEM2pdoRaDb-72" value="" style="shape=tableRow;horizontal=0;startSize=0;swimlaneHead=0;swimlaneBody=0;fillColor=none;collapsible=0;dropTarget=0;points=[[0,0.5],[1,0.5]];portConstraint=eastwest;top=0;left=0;right=0;bottom=0;fontColor=#000000;rounded=1;fontSize=14;" vertex="1" parent="hfMLLcwVXfEM2pdoRaDb-13">
          <mxGeometry y="270" width="200" height="30" as="geometry" />
        </mxCell>
        <mxCell id="hfMLLcwVXfEM2pdoRaDb-73" value="" style="shape=partialRectangle;connectable=0;fillColor=none;top=0;left=0;bottom=0;right=0;editable=1;overflow=hidden;whiteSpace=wrap;html=1;fontColor=#000000;rounded=1;fontSize=14;" vertex="1" parent="hfMLLcwVXfEM2pdoRaDb-72">
          <mxGeometry width="40" height="30" as="geometry">
            <mxRectangle width="40" height="30" as="alternateBounds" />
          </mxGeometry>
        </mxCell>
        <mxCell id="hfMLLcwVXfEM2pdoRaDb-74" value="total_sales" style="shape=partialRectangle;connectable=0;fillColor=none;top=0;left=0;bottom=0;right=0;align=left;spacingLeft=6;overflow=hidden;whiteSpace=wrap;html=1;fontColor=#000000;rounded=1;fontSize=14;" vertex="1" parent="hfMLLcwVXfEM2pdoRaDb-72">
          <mxGeometry x="40" width="160" height="30" as="geometry">
            <mxRectangle width="160" height="30" as="alternateBounds" />
          </mxGeometry>
        </mxCell>
        <mxCell id="hfMLLcwVXfEM2pdoRaDb-26" value="&lt;font style=&quot;color: rgb(0, 0, 0);&quot;&gt;gold.dim_products&lt;/font&gt;" style="shape=table;startSize=30;container=1;collapsible=1;childLayout=tableLayout;fixedRows=1;rowLines=0;fontStyle=1;align=center;resizeLast=1;html=1;rounded=1;fillColor=#fff2cc;gradientColor=none;strokeColor=#d6b656;fontColor=#000000;fontSize=14;swimlaneLine=1;" vertex="1" parent="WurSQEnUnvx9Y4QMuyyj-1">
          <mxGeometry x="680" y="-495" width="200" height="330" as="geometry" />
        </mxCell>
        <mxCell id="hfMLLcwVXfEM2pdoRaDb-27" value="" style="shape=tableRow;horizontal=0;startSize=0;swimlaneHead=0;swimlaneBody=0;fillColor=none;collapsible=0;dropTarget=0;points=[[0,0.5],[1,0.5]];portConstraint=eastwest;top=0;left=0;right=0;bottom=1;fontColor=#000000;rounded=1;fontSize=14;swimlaneLine=1;" vertex="1" parent="hfMLLcwVXfEM2pdoRaDb-26">
          <mxGeometry y="30" width="200" height="30" as="geometry" />
        </mxCell>
        <mxCell id="hfMLLcwVXfEM2pdoRaDb-28" value="PK" style="shape=partialRectangle;connectable=0;fillColor=none;top=0;left=0;bottom=0;right=0;fontStyle=1;overflow=hidden;whiteSpace=wrap;html=1;fontColor=#000000;rounded=1;fontSize=14;swimlaneLine=1;" vertex="1" parent="hfMLLcwVXfEM2pdoRaDb-27">
          <mxGeometry width="40" height="30" as="geometry">
            <mxRectangle width="40" height="30" as="alternateBounds" />
          </mxGeometry>
        </mxCell>
        <mxCell id="hfMLLcwVXfEM2pdoRaDb-29" value="product_key" style="shape=partialRectangle;connectable=0;fillColor=none;top=0;left=0;bottom=0;right=0;align=left;spacingLeft=6;fontStyle=5;overflow=hidden;whiteSpace=wrap;html=1;fontColor=#000000;rounded=1;fontSize=14;swimlaneLine=1;labelBackgroundColor=#E6E6E6;" vertex="1" parent="hfMLLcwVXfEM2pdoRaDb-27">
          <mxGeometry x="40" width="160" height="30" as="geometry">
            <mxRectangle width="160" height="30" as="alternateBounds" />
          </mxGeometry>
        </mxCell>
        <mxCell id="hfMLLcwVXfEM2pdoRaDb-30" value="" style="shape=tableRow;horizontal=0;startSize=0;swimlaneHead=0;swimlaneBody=0;fillColor=none;collapsible=0;dropTarget=0;points=[[0,0.5],[1,0.5]];portConstraint=eastwest;top=0;left=0;right=0;bottom=0;fontColor=#000000;rounded=1;fontSize=14;swimlaneLine=1;" vertex="1" parent="hfMLLcwVXfEM2pdoRaDb-26">
          <mxGeometry y="60" width="200" height="30" as="geometry" />
        </mxCell>
        <mxCell id="hfMLLcwVXfEM2pdoRaDb-31" value="" style="shape=partialRectangle;connectable=0;fillColor=none;top=0;left=0;bottom=0;right=0;editable=1;overflow=hidden;whiteSpace=wrap;html=1;fontColor=#000000;rounded=1;fontSize=14;swimlaneLine=1;" vertex="1" parent="hfMLLcwVXfEM2pdoRaDb-30">
          <mxGeometry width="40" height="30" as="geometry">
            <mxRectangle width="40" height="30" as="alternateBounds" />
          </mxGeometry>
        </mxCell>
        <mxCell id="hfMLLcwVXfEM2pdoRaDb-32" value="product_id" style="shape=partialRectangle;connectable=0;fillColor=none;top=0;left=0;bottom=0;right=0;align=left;spacingLeft=6;overflow=hidden;whiteSpace=wrap;html=1;fontColor=#000000;rounded=1;fontSize=14;swimlaneLine=1;" vertex="1" parent="hfMLLcwVXfEM2pdoRaDb-30">
          <mxGeometry x="40" width="160" height="30" as="geometry">
            <mxRectangle width="160" height="30" as="alternateBounds" />
          </mxGeometry>
        </mxCell>
        <mxCell id="hfMLLcwVXfEM2pdoRaDb-33" value="" style="shape=tableRow;horizontal=0;startSize=0;swimlaneHead=0;swimlaneBody=0;fillColor=none;collapsible=0;dropTarget=0;points=[[0,0.5],[1,0.5]];portConstraint=eastwest;top=0;left=0;right=0;bottom=0;fontColor=#000000;rounded=1;fontSize=14;swimlaneLine=1;" vertex="1" parent="hfMLLcwVXfEM2pdoRaDb-26">
          <mxGeometry y="90" width="200" height="30" as="geometry" />
        </mxCell>
        <mxCell id="hfMLLcwVXfEM2pdoRaDb-34" value="" style="shape=partialRectangle;connectable=0;fillColor=none;top=0;left=0;bottom=0;right=0;editable=1;overflow=hidden;whiteSpace=wrap;html=1;fontColor=#000000;rounded=1;fontSize=14;swimlaneLine=1;" vertex="1" parent="hfMLLcwVXfEM2pdoRaDb-33">
          <mxGeometry width="40" height="30" as="geometry">
            <mxRectangle width="40" height="30" as="alternateBounds" />
          </mxGeometry>
        </mxCell>
        <mxCell id="hfMLLcwVXfEM2pdoRaDb-35" value="product_number" style="shape=partialRectangle;connectable=0;fillColor=none;top=0;left=0;bottom=0;right=0;align=left;spacingLeft=6;overflow=hidden;whiteSpace=wrap;html=1;fontColor=#000000;rounded=1;fontSize=14;swimlaneLine=1;" vertex="1" parent="hfMLLcwVXfEM2pdoRaDb-33">
          <mxGeometry x="40" width="160" height="30" as="geometry">
            <mxRectangle width="160" height="30" as="alternateBounds" />
          </mxGeometry>
        </mxCell>
        <mxCell id="hfMLLcwVXfEM2pdoRaDb-36" value="" style="shape=tableRow;horizontal=0;startSize=0;swimlaneHead=0;swimlaneBody=0;fillColor=none;collapsible=0;dropTarget=0;points=[[0,0.5],[1,0.5]];portConstraint=eastwest;top=0;left=0;right=0;bottom=0;fontColor=#000000;rounded=1;fontSize=14;swimlaneLine=1;" vertex="1" parent="hfMLLcwVXfEM2pdoRaDb-26">
          <mxGeometry y="120" width="200" height="30" as="geometry" />
        </mxCell>
        <mxCell id="hfMLLcwVXfEM2pdoRaDb-37" value="" style="shape=partialRectangle;connectable=0;fillColor=none;top=0;left=0;bottom=0;right=0;editable=1;overflow=hidden;whiteSpace=wrap;html=1;fontColor=#000000;rounded=1;fontSize=14;swimlaneLine=1;" vertex="1" parent="hfMLLcwVXfEM2pdoRaDb-36">
          <mxGeometry width="40" height="30" as="geometry">
            <mxRectangle width="40" height="30" as="alternateBounds" />
          </mxGeometry>
        </mxCell>
        <mxCell id="hfMLLcwVXfEM2pdoRaDb-38" value="category_id" style="shape=partialRectangle;connectable=0;fillColor=none;top=0;left=0;bottom=0;right=0;align=left;spacingLeft=6;overflow=hidden;whiteSpace=wrap;html=1;fontColor=#000000;rounded=1;fontSize=14;swimlaneLine=1;" vertex="1" parent="hfMLLcwVXfEM2pdoRaDb-36">
          <mxGeometry x="40" width="160" height="30" as="geometry">
            <mxRectangle width="160" height="30" as="alternateBounds" />
          </mxGeometry>
        </mxCell>
        <mxCell id="hfMLLcwVXfEM2pdoRaDb-75" value="" style="shape=tableRow;horizontal=0;startSize=0;swimlaneHead=0;swimlaneBody=0;fillColor=none;collapsible=0;dropTarget=0;points=[[0,0.5],[1,0.5]];portConstraint=eastwest;top=0;left=0;right=0;bottom=0;fontColor=#000000;rounded=1;fontSize=14;swimlaneLine=1;" vertex="1" parent="hfMLLcwVXfEM2pdoRaDb-26">
          <mxGeometry y="150" width="200" height="30" as="geometry" />
        </mxCell>
        <mxCell id="hfMLLcwVXfEM2pdoRaDb-76" value="" style="shape=partialRectangle;connectable=0;fillColor=none;top=0;left=0;bottom=0;right=0;editable=1;overflow=hidden;whiteSpace=wrap;html=1;fontColor=#000000;rounded=1;fontSize=14;swimlaneLine=1;" vertex="1" parent="hfMLLcwVXfEM2pdoRaDb-75">
          <mxGeometry width="40" height="30" as="geometry">
            <mxRectangle width="40" height="30" as="alternateBounds" />
          </mxGeometry>
        </mxCell>
        <mxCell id="hfMLLcwVXfEM2pdoRaDb-77" value="category" style="shape=partialRectangle;connectable=0;fillColor=none;top=0;left=0;bottom=0;right=0;align=left;spacingLeft=6;overflow=hidden;whiteSpace=wrap;html=1;fontColor=#000000;rounded=1;fontSize=14;swimlaneLine=1;" vertex="1" parent="hfMLLcwVXfEM2pdoRaDb-75">
          <mxGeometry x="40" width="160" height="30" as="geometry">
            <mxRectangle width="160" height="30" as="alternateBounds" />
          </mxGeometry>
        </mxCell>
        <mxCell id="hfMLLcwVXfEM2pdoRaDb-78" value="" style="shape=tableRow;horizontal=0;startSize=0;swimlaneHead=0;swimlaneBody=0;fillColor=none;collapsible=0;dropTarget=0;points=[[0,0.5],[1,0.5]];portConstraint=eastwest;top=0;left=0;right=0;bottom=0;fontColor=#000000;rounded=1;fontSize=14;swimlaneLine=1;" vertex="1" parent="hfMLLcwVXfEM2pdoRaDb-26">
          <mxGeometry y="180" width="200" height="30" as="geometry" />
        </mxCell>
        <mxCell id="hfMLLcwVXfEM2pdoRaDb-79" value="" style="shape=partialRectangle;connectable=0;fillColor=none;top=0;left=0;bottom=0;right=0;editable=1;overflow=hidden;whiteSpace=wrap;html=1;fontColor=#000000;rounded=1;fontSize=14;swimlaneLine=1;" vertex="1" parent="hfMLLcwVXfEM2pdoRaDb-78">
          <mxGeometry width="40" height="30" as="geometry">
            <mxRectangle width="40" height="30" as="alternateBounds" />
          </mxGeometry>
        </mxCell>
        <mxCell id="hfMLLcwVXfEM2pdoRaDb-80" value="subcategory" style="shape=partialRectangle;connectable=0;fillColor=none;top=0;left=0;bottom=0;right=0;align=left;spacingLeft=6;overflow=hidden;whiteSpace=wrap;html=1;fontColor=#000000;rounded=1;fontSize=14;swimlaneLine=1;" vertex="1" parent="hfMLLcwVXfEM2pdoRaDb-78">
          <mxGeometry x="40" width="160" height="30" as="geometry">
            <mxRectangle width="160" height="30" as="alternateBounds" />
          </mxGeometry>
        </mxCell>
        <mxCell id="hfMLLcwVXfEM2pdoRaDb-81" value="" style="shape=tableRow;horizontal=0;startSize=0;swimlaneHead=0;swimlaneBody=0;fillColor=none;collapsible=0;dropTarget=0;points=[[0,0.5],[1,0.5]];portConstraint=eastwest;top=0;left=0;right=0;bottom=0;fontColor=#000000;rounded=1;fontSize=14;swimlaneLine=1;" vertex="1" parent="hfMLLcwVXfEM2pdoRaDb-26">
          <mxGeometry y="210" width="200" height="30" as="geometry" />
        </mxCell>
        <mxCell id="hfMLLcwVXfEM2pdoRaDb-82" value="" style="shape=partialRectangle;connectable=0;fillColor=none;top=0;left=0;bottom=0;right=0;editable=1;overflow=hidden;whiteSpace=wrap;html=1;fontColor=#000000;rounded=1;fontSize=14;swimlaneLine=1;" vertex="1" parent="hfMLLcwVXfEM2pdoRaDb-81">
          <mxGeometry width="40" height="30" as="geometry">
            <mxRectangle width="40" height="30" as="alternateBounds" />
          </mxGeometry>
        </mxCell>
        <mxCell id="hfMLLcwVXfEM2pdoRaDb-83" value="maintenance" style="shape=partialRectangle;connectable=0;fillColor=none;top=0;left=0;bottom=0;right=0;align=left;spacingLeft=6;overflow=hidden;whiteSpace=wrap;html=1;fontColor=#000000;rounded=1;fontSize=14;swimlaneLine=1;" vertex="1" parent="hfMLLcwVXfEM2pdoRaDb-81">
          <mxGeometry x="40" width="160" height="30" as="geometry">
            <mxRectangle width="160" height="30" as="alternateBounds" />
          </mxGeometry>
        </mxCell>
        <mxCell id="hfMLLcwVXfEM2pdoRaDb-84" value="" style="shape=tableRow;horizontal=0;startSize=0;swimlaneHead=0;swimlaneBody=0;fillColor=none;collapsible=0;dropTarget=0;points=[[0,0.5],[1,0.5]];portConstraint=eastwest;top=0;left=0;right=0;bottom=0;fontColor=#000000;rounded=1;fontSize=14;swimlaneLine=1;" vertex="1" parent="hfMLLcwVXfEM2pdoRaDb-26">
          <mxGeometry y="240" width="200" height="30" as="geometry" />
        </mxCell>
        <mxCell id="hfMLLcwVXfEM2pdoRaDb-85" value="" style="shape=partialRectangle;connectable=0;fillColor=none;top=0;left=0;bottom=0;right=0;editable=1;overflow=hidden;whiteSpace=wrap;html=1;fontColor=#000000;rounded=1;fontSize=14;swimlaneLine=1;" vertex="1" parent="hfMLLcwVXfEM2pdoRaDb-84">
          <mxGeometry width="40" height="30" as="geometry">
            <mxRectangle width="40" height="30" as="alternateBounds" />
          </mxGeometry>
        </mxCell>
        <mxCell id="hfMLLcwVXfEM2pdoRaDb-86" value="cost" style="shape=partialRectangle;connectable=0;fillColor=none;top=0;left=0;bottom=0;right=0;align=left;spacingLeft=6;overflow=hidden;whiteSpace=wrap;html=1;fontColor=#000000;rounded=1;fontSize=14;swimlaneLine=1;" vertex="1" parent="hfMLLcwVXfEM2pdoRaDb-84">
          <mxGeometry x="40" width="160" height="30" as="geometry">
            <mxRectangle width="160" height="30" as="alternateBounds" />
          </mxGeometry>
        </mxCell>
        <mxCell id="hfMLLcwVXfEM2pdoRaDb-87" value="" style="shape=tableRow;horizontal=0;startSize=0;swimlaneHead=0;swimlaneBody=0;fillColor=none;collapsible=0;dropTarget=0;points=[[0,0.5],[1,0.5]];portConstraint=eastwest;top=0;left=0;right=0;bottom=0;fontColor=#000000;rounded=1;fontSize=14;swimlaneLine=1;" vertex="1" parent="hfMLLcwVXfEM2pdoRaDb-26">
          <mxGeometry y="270" width="200" height="30" as="geometry" />
        </mxCell>
        <mxCell id="hfMLLcwVXfEM2pdoRaDb-88" value="" style="shape=partialRectangle;connectable=0;fillColor=none;top=0;left=0;bottom=0;right=0;editable=1;overflow=hidden;whiteSpace=wrap;html=1;fontColor=#000000;rounded=1;fontSize=14;swimlaneLine=1;" vertex="1" parent="hfMLLcwVXfEM2pdoRaDb-87">
          <mxGeometry width="40" height="30" as="geometry">
            <mxRectangle width="40" height="30" as="alternateBounds" />
          </mxGeometry>
        </mxCell>
        <mxCell id="hfMLLcwVXfEM2pdoRaDb-89" value="&lt;div&gt;product_line&lt;/div&gt;" style="shape=partialRectangle;connectable=0;fillColor=none;top=0;left=0;bottom=0;right=0;align=left;spacingLeft=6;overflow=hidden;whiteSpace=wrap;html=1;fontColor=#000000;rounded=1;fontSize=14;swimlaneLine=1;" vertex="1" parent="hfMLLcwVXfEM2pdoRaDb-87">
          <mxGeometry x="40" width="160" height="30" as="geometry">
            <mxRectangle width="160" height="30" as="alternateBounds" />
          </mxGeometry>
        </mxCell>
        <mxCell id="hfMLLcwVXfEM2pdoRaDb-90" value="" style="shape=tableRow;horizontal=0;startSize=0;swimlaneHead=0;swimlaneBody=0;fillColor=none;collapsible=0;dropTarget=0;points=[[0,0.5],[1,0.5]];portConstraint=eastwest;top=0;left=0;right=0;bottom=0;fontColor=#000000;rounded=1;fontSize=14;swimlaneLine=1;" vertex="1" parent="hfMLLcwVXfEM2pdoRaDb-26">
          <mxGeometry y="300" width="200" height="30" as="geometry" />
        </mxCell>
        <mxCell id="hfMLLcwVXfEM2pdoRaDb-91" value="" style="shape=partialRectangle;connectable=0;fillColor=none;top=0;left=0;bottom=0;right=0;editable=1;overflow=hidden;whiteSpace=wrap;html=1;fontColor=#000000;rounded=1;fontSize=14;swimlaneLine=1;" vertex="1" parent="hfMLLcwVXfEM2pdoRaDb-90">
          <mxGeometry width="40" height="30" as="geometry">
            <mxRectangle width="40" height="30" as="alternateBounds" />
          </mxGeometry>
        </mxCell>
        <mxCell id="hfMLLcwVXfEM2pdoRaDb-92" value="&lt;div&gt;start_date&lt;/div&gt;" style="shape=partialRectangle;connectable=0;fillColor=none;top=0;left=0;bottom=0;right=0;align=left;spacingLeft=6;overflow=hidden;whiteSpace=wrap;html=1;fontColor=#000000;rounded=1;fontSize=14;swimlaneLine=1;" vertex="1" parent="hfMLLcwVXfEM2pdoRaDb-90">
          <mxGeometry x="40" width="160" height="30" as="geometry">
            <mxRectangle width="160" height="30" as="alternateBounds" />
          </mxGeometry>
        </mxCell>
        <mxCell id="hfMLLcwVXfEM2pdoRaDb-93" value="" style="edgeStyle=entityRelationEdgeStyle;fontSize=12;html=1;endArrow=ERzeroToMany;startArrow=ERmandOne;rounded=1;strokeColor=#4D4D4D;exitX=1;exitY=0.5;exitDx=0;exitDy=0;entryX=0;entryY=0.5;entryDx=0;entryDy=0;" edge="1" parent="WurSQEnUnvx9Y4QMuyyj-1" source="hfMLLcwVXfEM2pdoRaDb-1" target="hfMLLcwVXfEM2pdoRaDb-20">
          <mxGeometry width="100" height="100" relative="1" as="geometry">
            <mxPoint x="320" y="-290" as="sourcePoint" />
            <mxPoint x="420" y="-390" as="targetPoint" />
          </mxGeometry>
        </mxCell>
        <mxCell id="hfMLLcwVXfEM2pdoRaDb-94" value="" style="edgeStyle=entityRelationEdgeStyle;fontSize=12;html=1;endArrow=ERzeroToMany;startArrow=ERmandOne;rounded=1;strokeColor=#4D4D4D;exitX=0;exitY=0.5;exitDx=0;exitDy=0;entryX=1;entryY=0.5;entryDx=0;entryDy=0;" edge="1" parent="WurSQEnUnvx9Y4QMuyyj-1" source="hfMLLcwVXfEM2pdoRaDb-27" target="hfMLLcwVXfEM2pdoRaDb-17">
          <mxGeometry width="100" height="100" relative="1" as="geometry">
            <mxPoint x="570" y="-330" as="sourcePoint" />
            <mxPoint x="670" y="-430" as="targetPoint" />
          </mxGeometry>
        </mxCell>
        <mxCell id="MByWy6Bj-z1jCRyNcKPp-0" value="Data Mart &lt;span style=&quot;font-weight: normal;&quot;&gt;&lt;font style=&quot;font-size: 20px;&quot;&gt;(Star Schema)&lt;/font&gt;&lt;/span&gt;" style="text;strokeColor=none;fillColor=none;align=center;verticalAlign=middle;spacingLeft=4;spacingRight=4;overflow=hidden;points=[[0,0.5],[1,0.5]];portConstraint=eastwest;rotatable=0;whiteSpace=wrap;html=1;fontColor=#000000;fontSize=22;fontStyle=5;" vertex="1" parent="WurSQEnUnvx9Y4QMuyyj-1">
          <mxGeometry x="345.5" y="-587" width="308" height="52" as="geometry" />
        </mxCell>
      </root>
    </mxGraphModel>
  </diagram>
</mxfile>
